<?xml version="1.0" encoding="UTF-8" standalone="no"?>
<!DOCTYPE svg PUBLIC "-//W3C//DTD SVG 1.1//EN"
 "http://www.w3.org/Graphics/SVG/1.1/DTD/svg11.dtd">
<!-- Generated by graphviz version 2.40.1 (20161225.0304)
 -->
<!-- Title: main Pages: 1 -->
<svg width="173pt" height="142pt"
 viewBox="0.00 0.00 173.00 142.00" xmlns="http://www.w3.org/2000/svg" xmlns:xlink="http://www.w3.org/1999/xlink">
<g id="graph0" class="graph" transform="scale(1 1) rotate(0) translate(4 138)">
<title>main</title>
<polygon fill="#ffffff" stroke="transparent" points="-4,4 -4,-138 169,-138 169,4 -4,4"/>
<!-- Node6 -->
<g id="node1" class="node">
<title>Node6</title>
<polygon fill="#bfbfbf" stroke="#000000" points="0,-57.5 0,-76.5 38,-76.5 38,-57.5 0,-57.5"/>
<text text-anchor="middle" x="19" y="-64.5" font-family="Helvetica,sans-Serif" font-size="10.00" fill="#000000">main</text>
</g>
<!-- Node7 -->
<g id="node2" class="node">
<title>Node7</title>
<g id="a_node2"><a xlink:href="datapoints-watkins_8c.html#ad52a45a31b7bdee48bcf951f9d754ec5" target="_top" xlink:title="exp_minus_one">
<polygon fill="#ffffff" stroke="#000000" points="77,-114.5 77,-133.5 162,-133.5 162,-114.5 77,-114.5"/>
<text text-anchor="middle" x="119.5" y="-121.5" font-family="Helvetica,sans-Serif" font-size="10.00" fill="#000000">exp_minus_one</text>
</a>
</g>
</g>
<!-- Node6&#45;&gt;Node7 -->
<g id="edge1" class="edge">
<title>Node6&#45;&gt;Node7</title>
<path fill="none" stroke="#191970" d="M31.1914,-76.5307C42.0322,-84.7306 58.5192,-96.5411 74,-105 77.4509,-106.8856 81.1284,-108.7063 84.84,-110.4246"/>
<polygon fill="#191970" stroke="#191970" points="83.4641,-113.643 94.0271,-114.4639 86.2815,-107.235 83.4641,-113.643"/>
</g>
<!-- Node8 -->
<g id="node3" class="node">
<title>Node8</title>
<g id="a_node3"><a xlink:href="datapoints-watkins_8c.html#ac9178c9465adc0b40025d76641468dce" target="_top" xlink:title="initialize_h">
<polygon fill="#ffffff" stroke="#000000" points="88.5,-76.5 88.5,-95.5 150.5,-95.5 150.5,-76.5 88.5,-76.5"/>
<text text-anchor="middle" x="119.5" y="-83.5" font-family="Helvetica,sans-Serif" font-size="10.00" fill="#000000">initialize_h</text>
</a>
</g>
</g>
<!-- Node6&#45;&gt;Node8 -->
<g id="edge2" class="edge">
<title>Node6&#45;&gt;Node8</title>
<path fill="none" stroke="#191970" d="M38.3774,-70.6634C49.7603,-72.8154 64.594,-75.6198 78.4592,-78.241"/>
<polygon fill="#191970" stroke="#191970" points="77.8446,-81.6868 88.3208,-80.1054 79.145,-74.8086 77.8446,-81.6868"/>
</g>
<!-- Node9 -->
<g id="node4" class="node">
<title>Node9</title>
<g id="a_node4"><a xlink:href="datapoints-watkins_8c.html#aa3f5373e059741baa21ff7b2bf4f1f2b" target="_top" xlink:title="mod_64">
<polygon fill="#ffffff" stroke="#000000" points="94,-38.5 94,-57.5 145,-57.5 145,-38.5 94,-38.5"/>
<text text-anchor="middle" x="119.5" y="-45.5" font-family="Helvetica,sans-Serif" font-size="10.00" fill="#000000">mod_64</text>
</a>
</g>
</g>
<!-- Node6&#45;&gt;Node9 -->
<g id="edge3" class="edge">
<title>Node6&#45;&gt;Node9</title>
<path fill="none" stroke="#191970" d="M38.3774,-63.3366C51.1685,-60.9184 68.3169,-57.6764 83.552,-54.7961"/>
<polygon fill="#191970" stroke="#191970" points="84.5409,-58.1713 93.7167,-52.8745 83.2405,-51.2931 84.5409,-58.1713"/>
</g>
<!-- Node10 -->
<g id="node5" class="node">
<title>Node10</title>
<g id="a_node5"><a xlink:href="datapoints-watkins_8c.html#a6e6ea6e2cd387a2b8b92efbb5dd0c735" target="_top" xlink:title="print_data_points">
<polygon fill="#ffffff" stroke="#000000" points="74,-.5 74,-19.5 165,-19.5 165,-.5 74,-.5"/>
<text text-anchor="middle" x="119.5" y="-7.5" font-family="Helvetica,sans-Serif" font-size="10.00" fill="#000000">print_data_points</text>
</a>
</g>
</g>
<!-- Node6&#45;&gt;Node10 -->
<g id="edge4" class="edge">
<title>Node6&#45;&gt;Node10</title>
<path fill="none" stroke="#191970" d="M31.1914,-57.4693C42.0322,-49.2694 58.5192,-37.4589 74,-29 77.4509,-27.1144 81.1284,-25.2937 84.84,-23.5754"/>
<polygon fill="#191970" stroke="#191970" points="86.2815,-26.765 94.0271,-19.5361 83.4641,-20.357 86.2815,-26.765"/>
</g>
</g>
</svg>
