<?xml version="1.0" encoding="UTF-8" standalone="no"?>
<!DOCTYPE svg PUBLIC "-//W3C//DTD SVG 1.1//EN"
 "http://www.w3.org/Graphics/SVG/1.1/DTD/svg11.dtd">
<!-- Generated by graphviz version 2.40.1 (20161225.0304)
 -->
<!-- Title: datapoints&#45;watkins.c Pages: 1 -->
<svg width="120pt" height="84pt"
 viewBox="0.00 0.00 120.00 84.00" xmlns="http://www.w3.org/2000/svg" xmlns:xlink="http://www.w3.org/1999/xlink">
<g id="graph0" class="graph" transform="scale(1 1) rotate(0) translate(4 80)">
<title>datapoints&#45;watkins.c</title>
<polygon fill="#ffffff" stroke="transparent" points="-4,4 -4,-80 116,-80 116,4 -4,4"/>
<!-- Node0 -->
<g id="node1" class="node">
<title>Node0</title>
<polygon fill="#bfbfbf" stroke="#000000" points="1.5,-56.5 1.5,-75.5 108.5,-75.5 108.5,-56.5 1.5,-56.5"/>
<text text-anchor="middle" x="55" y="-63.5" font-family="Helvetica,sans-Serif" font-size="10.00" fill="#000000">datapoints&#45;watkins.c</text>
</g>
<!-- Node1 -->
<g id="node2" class="node">
<title>Node1</title>
<polygon fill="#ffffff" stroke="#bfbfbf" points="0,-.5 0,-19.5 46,-19.5 46,-.5 0,-.5"/>
<text text-anchor="middle" x="23" y="-7.5" font-family="Helvetica,sans-Serif" font-size="10.00" fill="#000000">stdio.h</text>
</g>
<!-- Node0&#45;&gt;Node1 -->
<g id="edge1" class="edge">
<title>Node0&#45;&gt;Node1</title>
<path fill="none" stroke="#191970" d="M49.426,-56.2455C45.0669,-48.617 38.8789,-37.7881 33.5867,-28.5267"/>
<polygon fill="#191970" stroke="#191970" points="36.5104,-26.5886 28.5101,-19.6427 30.4327,-30.0616 36.5104,-26.5886"/>
</g>
<!-- Node2 -->
<g id="node3" class="node">
<title>Node2</title>
<polygon fill="#ffffff" stroke="#bfbfbf" points="64,-.5 64,-19.5 112,-19.5 112,-.5 64,-.5"/>
<text text-anchor="middle" x="88" y="-7.5" font-family="Helvetica,sans-Serif" font-size="10.00" fill="#000000">stdlib.h</text>
</g>
<!-- Node0&#45;&gt;Node2 -->
<g id="edge2" class="edge">
<title>Node0&#45;&gt;Node2</title>
<path fill="none" stroke="#191970" d="M60.7482,-56.2455C65.2435,-48.617 71.6248,-37.7881 77.0825,-28.5267"/>
<polygon fill="#191970" stroke="#191970" points="80.2561,-30.035 82.3177,-19.6427 74.2253,-26.4811 80.2561,-30.035"/>
</g>
</g>
</svg>
