<?xml version="1.0" encoding="UTF-8" standalone="no"?>
<!DOCTYPE svg PUBLIC "-//W3C//DTD SVG 1.1//EN"
 "http://www.w3.org/Graphics/SVG/1.1/DTD/svg11.dtd">
<!-- Generated by graphviz version 2.40.1 (20161225.0304)
 -->
<!-- Title: ThreadStruct Pages: 1 -->
<svg width="194pt" height="172pt"
 viewBox="0.00 0.00 194.00 172.00" xmlns="http://www.w3.org/2000/svg" xmlns:xlink="http://www.w3.org/1999/xlink">
<g id="graph0" class="graph" transform="scale(1 1) rotate(0) translate(4 168)">
<title>ThreadStruct</title>
<polygon fill="#ffffff" stroke="transparent" points="-4,4 -4,-168 190,-168 190,4 -4,4"/>
<!-- Node1 -->
<g id="node1" class="node">
<title>Node1</title>
<polygon fill="#bfbfbf" stroke="#000000" points="64.5,-.5 64.5,-19.5 137.5,-19.5 137.5,-.5 64.5,-.5"/>
<text text-anchor="middle" x="101" y="-7.5" font-family="Helvetica,sans-Serif" font-size="10.00" fill="#000000">ThreadStruct</text>
</g>
<!-- Node2 -->
<g id="node2" class="node">
<title>Node2</title>
<polygon fill="#ffffff" stroke="#bfbfbf" points="0,-144.5 0,-163.5 100,-163.5 100,-144.5 0,-144.5"/>
<text text-anchor="middle" x="50" y="-151.5" font-family="Helvetica,sans-Serif" font-size="10.00" fill="#000000">volatile long double</text>
</g>
<!-- Node2&#45;&gt;Node1 -->
<g id="edge1" class="edge">
<title>Node2&#45;&gt;Node1</title>
<path fill="none" stroke="#9a32cd" stroke-dasharray="5,2" d="M56.9682,-134.325C68.0658,-102.9906 89.3439,-42.9113 97.6043,-19.5877"/>
<polygon fill="#9a32cd" stroke="#9a32cd" points="53.5448,-133.5075 53.5054,-144.1023 60.1432,-135.8445 53.5448,-133.5075"/>
<text text-anchor="middle" x="102.5" y="-118" font-family="Helvetica,sans-Serif" font-size="10.00" fill="#000000"> ans3</text>
<text text-anchor="middle" x="102.5" y="-107" font-family="Helvetica,sans-Serif" font-size="10.00" fill="#000000">x4</text>
<text text-anchor="middle" x="102.5" y="-96" font-family="Helvetica,sans-Serif" font-size="10.00" fill="#000000">ans4</text>
<text text-anchor="middle" x="102.5" y="-85" font-family="Helvetica,sans-Serif" font-size="10.00" fill="#000000">x1</text>
<text text-anchor="middle" x="102.5" y="-74" font-family="Helvetica,sans-Serif" font-size="10.00" fill="#000000">ans1</text>
<text text-anchor="middle" x="102.5" y="-63" font-family="Helvetica,sans-Serif" font-size="10.00" fill="#000000">x2</text>
<text text-anchor="middle" x="102.5" y="-52" font-family="Helvetica,sans-Serif" font-size="10.00" fill="#000000">ans2</text>
<text text-anchor="middle" x="102.5" y="-41" font-family="Helvetica,sans-Serif" font-size="10.00" fill="#000000">x3</text>
</g>
<!-- Node3 -->
<g id="node3" class="node">
<title>Node3</title>
<polygon fill="#ffffff" stroke="#bfbfbf" points="118,-144.5 118,-163.5 186,-163.5 186,-144.5 118,-144.5"/>
<text text-anchor="middle" x="152" y="-151.5" font-family="Helvetica,sans-Serif" font-size="10.00" fill="#000000">volatile bool</text>
</g>
<!-- Node3&#45;&gt;Node1 -->
<g id="edge2" class="edge">
<title>Node3&#45;&gt;Node1</title>
<path fill="none" stroke="#9a32cd" stroke-dasharray="5,2" d="M148.296,-134.5326C143.4042,-110.9802 133.6577,-70.4517 119,-38 116.0978,-31.5747 111.8738,-24.9144 108.2469,-19.7023"/>
<polygon fill="#9a32cd" stroke="#9a32cd" points="144.865,-135.2245 150.2551,-144.3458 151.7295,-133.854 144.865,-135.2245"/>
<text text-anchor="middle" x="162" y="-96" font-family="Helvetica,sans-Serif" font-size="10.00" fill="#000000"> _lock1</text>
<text text-anchor="middle" x="162" y="-85" font-family="Helvetica,sans-Serif" font-size="10.00" fill="#000000">_lock2</text>
<text text-anchor="middle" x="162" y="-74" font-family="Helvetica,sans-Serif" font-size="10.00" fill="#000000">_lock3</text>
<text text-anchor="middle" x="162" y="-63" font-family="Helvetica,sans-Serif" font-size="10.00" fill="#000000">_lock4</text>
</g>
</g>
</svg>
