<?xml version="1.0" encoding="UTF-8" standalone="no"?>
<!DOCTYPE svg PUBLIC "-//W3C//DTD SVG 1.1//EN"
 "http://www.w3.org/Graphics/SVG/1.1/DTD/svg11.dtd">
<!-- Generated by graphviz version 2.40.1 (20161225.0304)
 -->
<!-- Title: mult_power Pages: 1 -->
<svg width="239pt" height="180pt"
 viewBox="0.00 0.00 239.00 180.00" xmlns="http://www.w3.org/2000/svg" xmlns:xlink="http://www.w3.org/1999/xlink">
<g id="graph0" class="graph" transform="scale(1 1) rotate(0) translate(4 176)">
<title>mult_power</title>
<polygon fill="#ffffff" stroke="transparent" points="-4,4 -4,-176 235,-176 235,4 -4,4"/>
<!-- Node74 -->
<g id="node1" class="node">
<title>Node74</title>
<polygon fill="#bfbfbf" stroke="#000000" points="0,-76.5 0,-95.5 67,-95.5 67,-76.5 0,-76.5"/>
<text text-anchor="middle" x="33.5" y="-83.5" font-family="Helvetica,sans-Serif" font-size="10.00" fill="#000000">mult_power</text>
</g>
<!-- Node75 -->
<g id="node2" class="node">
<title>Node75</title>
<g id="a_node2"><a xlink:href="twz-generator-threaded_8c.html#a96b227aeaa6038dbf6b76d6bda848356" target="_top" xlink:title="f">
<polygon fill="#ffffff" stroke="#000000" points="115.5,-152.5 115.5,-171.5 144.5,-171.5 144.5,-152.5 115.5,-152.5"/>
<text text-anchor="middle" x="130" y="-159.5" font-family="Helvetica,sans-Serif" font-size="10.00" fill="#000000">f</text>
</a>
</g>
</g>
<!-- Node74&#45;&gt;Node75 -->
<g id="edge1" class="edge">
<title>Node74&#45;&gt;Node75</title>
<path fill="none" stroke="#191970" d="M52.4348,-102.1654C66.2398,-113.7935 85.5117,-129.7038 103,-143 107.1065,-146.1222 111.6627,-149.3974 115.8449,-152.3321"/>
<polygon fill="#191970" stroke="#191970" points="54.5039,-99.3312 44.6106,-95.5402 49.9805,-104.6734 54.5039,-99.3312"/>
</g>
<!-- Node76 -->
<g id="node3" class="node">
<title>Node76</title>
<g id="a_node3"><a xlink:href="twz-generator-threaded_8c.html#a4b393e7844e62f6f41c4771c69855766" target="_top" xlink:title="fFOUR">
<polygon fill="#ffffff" stroke="#000000" points="106,-114.5 106,-133.5 154,-133.5 154,-114.5 106,-114.5"/>
<text text-anchor="middle" x="130" y="-121.5" font-family="Helvetica,sans-Serif" font-size="10.00" fill="#000000">fFOUR</text>
</a>
</g>
</g>
<!-- Node74&#45;&gt;Node76 -->
<g id="edge2" class="edge">
<title>Node74&#45;&gt;Node76</title>
<path fill="none" stroke="#191970" d="M67.259,-99.2937C80.0302,-104.3228 94.2944,-109.9398 105.9911,-114.5457"/>
<polygon fill="#191970" stroke="#191970" points="68.438,-95.9964 57.851,-95.589 65.8732,-102.5097 68.438,-95.9964"/>
</g>
<!-- Node78 -->
<g id="node5" class="node">
<title>Node78</title>
<g id="a_node5"><a xlink:href="twz-generator-threaded_8c.html#a5258ab912d9e37b030667e0f76a7274d" target="_top" xlink:title="fONE">
<polygon fill="#ffffff" stroke="#000000" points="109.5,-76.5 109.5,-95.5 150.5,-95.5 150.5,-76.5 109.5,-76.5"/>
<text text-anchor="middle" x="130" y="-83.5" font-family="Helvetica,sans-Serif" font-size="10.00" fill="#000000">fONE</text>
</a>
</g>
</g>
<!-- Node74&#45;&gt;Node78 -->
<g id="edge4" class="edge">
<title>Node74&#45;&gt;Node78</title>
<path fill="none" stroke="#191970" d="M77.3383,-86C88.4946,-86 99.9683,-86 109.3464,-86"/>
<polygon fill="#191970" stroke="#191970" points="77.2511,-82.5001 67.251,-86 77.251,-89.5001 77.2511,-82.5001"/>
</g>
<!-- Node79 -->
<g id="node6" class="node">
<title>Node79</title>
<g id="a_node6"><a xlink:href="twz-generator-threaded_8c.html#a0c5c9001265cb7e7630435b501d2c8d7" target="_top" xlink:title="fTHREE">
<polygon fill="#ffffff" stroke="#000000" points="103,-38.5 103,-57.5 157,-57.5 157,-38.5 103,-38.5"/>
<text text-anchor="middle" x="130" y="-45.5" font-family="Helvetica,sans-Serif" font-size="10.00" fill="#000000">fTHREE</text>
</a>
</g>
</g>
<!-- Node74&#45;&gt;Node79 -->
<g id="edge6" class="edge">
<title>Node74&#45;&gt;Node79</title>
<path fill="none" stroke="#191970" d="M67.185,-72.7354C79.8537,-67.7467 94.0007,-62.1759 105.6568,-57.5859"/>
<polygon fill="#191970" stroke="#191970" points="65.8732,-69.4903 57.851,-76.411 68.438,-76.0036 65.8732,-69.4903"/>
</g>
<!-- Node80 -->
<g id="node7" class="node">
<title>Node80</title>
<g id="a_node7"><a xlink:href="twz-generator-threaded_8c.html#a3ceba978f59ad2ad586f0ad1b3d712d9" target="_top" xlink:title="fTWO">
<polygon fill="#ffffff" stroke="#000000" points="108.5,-.5 108.5,-19.5 151.5,-19.5 151.5,-.5 108.5,-.5"/>
<text text-anchor="middle" x="130" y="-7.5" font-family="Helvetica,sans-Serif" font-size="10.00" fill="#000000">fTWO</text>
</a>
</g>
</g>
<!-- Node74&#45;&gt;Node80 -->
<g id="edge8" class="edge">
<title>Node74&#45;&gt;Node80</title>
<path fill="none" stroke="#191970" d="M52.4348,-69.8346C66.2398,-58.2065 85.5117,-42.2962 103,-29 107.1065,-25.8778 111.6627,-22.6026 115.8449,-19.6679"/>
<polygon fill="#191970" stroke="#191970" points="49.9805,-67.3266 44.6106,-76.4598 54.5039,-72.6688 49.9805,-67.3266"/>
</g>
<!-- Node77 -->
<g id="node4" class="node">
<title>Node77</title>
<g id="a_node4"><a xlink:href="twz-generator-threaded_8c.html#a0ddf1224851353fc92bfbff6f499fa97" target="_top" xlink:title="main">
<polygon fill="#ffffff" stroke="#000000" points="193,-57.5 193,-76.5 231,-76.5 231,-57.5 193,-57.5"/>
<text text-anchor="middle" x="212" y="-64.5" font-family="Helvetica,sans-Serif" font-size="10.00" fill="#000000">main</text>
</a>
</g>
</g>
<!-- Node76&#45;&gt;Node77 -->
<g id="edge3" class="edge">
<title>Node76&#45;&gt;Node77</title>
<path fill="none" stroke="#191970" d="M152.4346,-108.4052C167.1067,-98.2063 185.7999,-85.2123 198.2952,-76.5265"/>
<polygon fill="#191970" stroke="#191970" points="150.1236,-105.7491 143.9102,-114.3307 154.119,-111.4969 150.1236,-105.7491"/>
</g>
<!-- Node78&#45;&gt;Node77 -->
<g id="edge5" class="edge">
<title>Node78&#45;&gt;Node77</title>
<path fill="none" stroke="#191970" d="M160.5943,-78.9111C171.3606,-76.4164 183.152,-73.6843 192.7228,-71.4667"/>
<polygon fill="#191970" stroke="#191970" points="159.6439,-75.5385 150.6921,-81.2055 161.224,-82.3578 159.6439,-75.5385"/>
</g>
<!-- Node79&#45;&gt;Node77 -->
<g id="edge7" class="edge">
<title>Node79&#45;&gt;Node77</title>
<path fill="none" stroke="#191970" d="M167.143,-56.6063C176.0282,-58.6651 185.1573,-60.7803 192.841,-62.5607"/>
<polygon fill="#191970" stroke="#191970" points="167.8368,-53.1744 157.3048,-54.3267 166.2566,-59.9937 167.8368,-53.1744"/>
</g>
<!-- Node80&#45;&gt;Node77 -->
<g id="edge9" class="edge">
<title>Node80&#45;&gt;Node77</title>
<path fill="none" stroke="#191970" d="M152.4346,-25.5948C167.1067,-35.7937 185.7999,-48.7877 198.2952,-57.4735"/>
<polygon fill="#191970" stroke="#191970" points="154.119,-22.5031 143.9102,-19.6693 150.1236,-28.2509 154.119,-22.5031"/>
</g>
</g>
</svg>
