<?xml version="1.0" encoding="UTF-8" standalone="no"?>
<!DOCTYPE svg PUBLIC "-//W3C//DTD SVG 1.1//EN"
 "http://www.w3.org/Graphics/SVG/1.1/DTD/svg11.dtd">
<!-- Generated by graphviz version 2.40.1 (20161225.0304)
 -->
<!-- Title: mult_power Pages: 1 -->
<svg width="214pt" height="28pt"
 viewBox="0.00 0.00 214.00 28.00" xmlns="http://www.w3.org/2000/svg" xmlns:xlink="http://www.w3.org/1999/xlink">
<g id="graph0" class="graph" transform="scale(1 1) rotate(0) translate(4 24)">
<title>mult_power</title>
<polygon fill="#ffffff" stroke="transparent" points="-4,4 -4,-24 210,-24 210,4 -4,4"/>
<!-- Node52 -->
<g id="node1" class="node">
<title>Node52</title>
<polygon fill="#bfbfbf" stroke="#000000" points="0,-.5 0,-19.5 67,-19.5 67,-.5 0,-.5"/>
<text text-anchor="middle" x="33.5" y="-7.5" font-family="Helvetica,sans-Serif" font-size="10.00" fill="#000000">mult_power</text>
</g>
<!-- Node53 -->
<g id="node2" class="node">
<title>Node53</title>
<g id="a_node2"><a xlink:href="twz-generator_8c.html#a96b227aeaa6038dbf6b76d6bda848356" target="_top" xlink:title="f">
<polygon fill="#ffffff" stroke="#000000" points="103,-.5 103,-19.5 132,-19.5 132,-.5 103,-.5"/>
<text text-anchor="middle" x="117.5" y="-7.5" font-family="Helvetica,sans-Serif" font-size="10.00" fill="#000000">f</text>
</a>
</g>
</g>
<!-- Node52&#45;&gt;Node53 -->
<g id="edge1" class="edge">
<title>Node52&#45;&gt;Node53</title>
<path fill="none" stroke="#191970" d="M77.2033,-10C86.4775,-10 95.6407,-10 102.8803,-10"/>
<polygon fill="#191970" stroke="#191970" points="77.182,-6.5001 67.182,-10 77.182,-13.5001 77.182,-6.5001"/>
</g>
<!-- Node54 -->
<g id="node3" class="node">
<title>Node54</title>
<g id="a_node3"><a xlink:href="twz-generator_8c.html#a0ddf1224851353fc92bfbff6f499fa97" target="_top" xlink:title="main">
<polygon fill="#ffffff" stroke="#000000" points="168,-.5 168,-19.5 206,-19.5 206,-.5 168,-.5"/>
<text text-anchor="middle" x="187" y="-7.5" font-family="Helvetica,sans-Serif" font-size="10.00" fill="#000000">main</text>
</a>
</g>
</g>
<!-- Node53&#45;&gt;Node54 -->
<g id="edge2" class="edge">
<title>Node53&#45;&gt;Node54</title>
<path fill="none" stroke="#191970" d="M142.2522,-10C150.6471,-10 159.893,-10 167.7903,-10"/>
<polygon fill="#191970" stroke="#191970" points="142.2392,-6.5001 132.2392,-10 142.2391,-13.5001 142.2392,-6.5001"/>
</g>
</g>
</svg>
