<?xml version="1.0" encoding="UTF-8" standalone="no"?>
<!DOCTYPE svg PUBLIC "-//W3C//DTD SVG 1.1//EN"
 "http://www.w3.org/Graphics/SVG/1.1/DTD/svg11.dtd">
<!-- Generated by graphviz version 2.40.1 (20161225.0304)
 -->
<!-- Title: v Pages: 1 -->
<svg width="176pt" height="28pt"
 viewBox="0.00 0.00 176.00 28.00" xmlns="http://www.w3.org/2000/svg" xmlns:xlink="http://www.w3.org/1999/xlink">
<g id="graph0" class="graph" transform="scale(1 1) rotate(0) translate(4 24)">
<title>v</title>
<polygon fill="#ffffff" stroke="transparent" points="-4,4 -4,-24 172,-24 172,4 -4,4"/>
<!-- Node59 -->
<g id="node1" class="node">
<title>Node59</title>
<polygon fill="#bfbfbf" stroke="#000000" points="0,-.5 0,-19.5 29,-19.5 29,-.5 0,-.5"/>
<text text-anchor="middle" x="14.5" y="-7.5" font-family="Helvetica,sans-Serif" font-size="10.00" fill="#000000">v</text>
</g>
<!-- Node60 -->
<g id="node2" class="node">
<title>Node60</title>
<g id="a_node2"><a xlink:href="twz-generator_8c.html#a96b227aeaa6038dbf6b76d6bda848356" target="_top" xlink:title="f">
<polygon fill="#ffffff" stroke="#000000" points="65,-.5 65,-19.5 94,-19.5 94,-.5 65,-.5"/>
<text text-anchor="middle" x="79.5" y="-7.5" font-family="Helvetica,sans-Serif" font-size="10.00" fill="#000000">f</text>
</a>
</g>
</g>
<!-- Node59&#45;&gt;Node60 -->
<g id="edge1" class="edge">
<title>Node59&#45;&gt;Node60</title>
<path fill="none" stroke="#191970" d="M39.4995,-10C48.0525,-10 57.3387,-10 64.8089,-10"/>
<polygon fill="#191970" stroke="#191970" points="39.2495,-6.5001 29.2495,-10 39.2495,-13.5001 39.2495,-6.5001"/>
</g>
<!-- Node61 -->
<g id="node3" class="node">
<title>Node61</title>
<g id="a_node3"><a xlink:href="twz-generator_8c.html#a0ddf1224851353fc92bfbff6f499fa97" target="_top" xlink:title="main">
<polygon fill="#ffffff" stroke="#000000" points="130,-.5 130,-19.5 168,-19.5 168,-.5 130,-.5"/>
<text text-anchor="middle" x="149" y="-7.5" font-family="Helvetica,sans-Serif" font-size="10.00" fill="#000000">main</text>
</a>
</g>
</g>
<!-- Node60&#45;&gt;Node61 -->
<g id="edge2" class="edge">
<title>Node60&#45;&gt;Node61</title>
<path fill="none" stroke="#191970" d="M104.2522,-10C112.6471,-10 121.893,-10 129.7903,-10"/>
<polygon fill="#191970" stroke="#191970" points="104.2392,-6.5001 94.2392,-10 104.2391,-13.5001 104.2392,-6.5001"/>
</g>
</g>
</svg>
