<?xml version="1.0" encoding="UTF-8" standalone="no"?>
<!DOCTYPE svg PUBLIC "-//W3C//DTD SVG 1.1//EN"
 "http://www.w3.org/Graphics/SVG/1.1/DTD/svg11.dtd">
<!-- Generated by graphviz version 2.40.1 (20161225.0304)
 -->
<!-- Title: div_power Pages: 1 -->
<svg width="233pt" height="180pt"
 viewBox="0.00 0.00 233.00 180.00" xmlns="http://www.w3.org/2000/svg" xmlns:xlink="http://www.w3.org/1999/xlink">
<g id="graph0" class="graph" transform="scale(1 1) rotate(0) translate(4 176)">
<title>div_power</title>
<polygon fill="#ffffff" stroke="transparent" points="-4,4 -4,-176 229,-176 229,4 -4,4"/>
<!-- Node1 -->
<g id="node1" class="node">
<title>Node1</title>
<polygon fill="#bfbfbf" stroke="#000000" points="0,-76.5 0,-95.5 61,-95.5 61,-76.5 0,-76.5"/>
<text text-anchor="middle" x="30.5" y="-83.5" font-family="Helvetica,sans-Serif" font-size="10.00" fill="#000000">div_power</text>
</g>
<!-- Node2 -->
<g id="node2" class="node">
<title>Node2</title>
<g id="a_node2"><a xlink:href="twz-generator-threaded_8c.html#a96b227aeaa6038dbf6b76d6bda848356" target="_top" xlink:title="f">
<polygon fill="#ffffff" stroke="#000000" points="109.5,-152.5 109.5,-171.5 138.5,-171.5 138.5,-152.5 109.5,-152.5"/>
<text text-anchor="middle" x="124" y="-159.5" font-family="Helvetica,sans-Serif" font-size="10.00" fill="#000000">f</text>
</a>
</g>
</g>
<!-- Node1&#45;&gt;Node2 -->
<g id="edge1" class="edge">
<title>Node1&#45;&gt;Node2</title>
<path fill="none" stroke="#191970" d="M48.8906,-102.5915C62.0247,-114.234 80.2601,-129.9835 97,-143 101.0724,-146.1666 105.6184,-149.455 109.8018,-152.3882"/>
<polygon fill="#191970" stroke="#191970" points="50.8539,-99.6525 41.0632,-95.6039 46.1922,-104.8744 50.8539,-99.6525"/>
</g>
<!-- Node3 -->
<g id="node3" class="node">
<title>Node3</title>
<g id="a_node3"><a xlink:href="twz-generator-threaded_8c.html#a4b393e7844e62f6f41c4771c69855766" target="_top" xlink:title="fFOUR">
<polygon fill="#ffffff" stroke="#000000" points="100,-114.5 100,-133.5 148,-133.5 148,-114.5 100,-114.5"/>
<text text-anchor="middle" x="124" y="-121.5" font-family="Helvetica,sans-Serif" font-size="10.00" fill="#000000">fFOUR</text>
</a>
</g>
</g>
<!-- Node1&#45;&gt;Node3 -->
<g id="edge2" class="edge">
<title>Node1&#45;&gt;Node3</title>
<path fill="none" stroke="#191970" d="M63.4992,-99.4114C75.6812,-104.3624 89.2305,-109.8691 100.4136,-114.4141"/>
<polygon fill="#191970" stroke="#191970" points="64.6759,-96.1117 54.094,-95.589 62.0403,-102.5966 64.6759,-96.1117"/>
</g>
<!-- Node5 -->
<g id="node5" class="node">
<title>Node5</title>
<g id="a_node5"><a xlink:href="twz-generator-threaded_8c.html#a5258ab912d9e37b030667e0f76a7274d" target="_top" xlink:title="fONE">
<polygon fill="#ffffff" stroke="#000000" points="103.5,-76.5 103.5,-95.5 144.5,-95.5 144.5,-76.5 103.5,-76.5"/>
<text text-anchor="middle" x="124" y="-83.5" font-family="Helvetica,sans-Serif" font-size="10.00" fill="#000000">fONE</text>
</a>
</g>
</g>
<!-- Node1&#45;&gt;Node5 -->
<g id="edge4" class="edge">
<title>Node1&#45;&gt;Node5</title>
<path fill="none" stroke="#191970" d="M71.1324,-86C82.2647,-86 93.8678,-86 103.358,-86"/>
<polygon fill="#191970" stroke="#191970" points="71.1154,-82.5001 61.1154,-86 71.1154,-89.5001 71.1154,-82.5001"/>
</g>
<!-- Node6 -->
<g id="node6" class="node">
<title>Node6</title>
<g id="a_node6"><a xlink:href="twz-generator-threaded_8c.html#a0c5c9001265cb7e7630435b501d2c8d7" target="_top" xlink:title="fTHREE">
<polygon fill="#ffffff" stroke="#000000" points="97,-38.5 97,-57.5 151,-57.5 151,-38.5 97,-38.5"/>
<text text-anchor="middle" x="124" y="-45.5" font-family="Helvetica,sans-Serif" font-size="10.00" fill="#000000">fTHREE</text>
</a>
</g>
</g>
<!-- Node1&#45;&gt;Node6 -->
<g id="edge6" class="edge">
<title>Node1&#45;&gt;Node6</title>
<path fill="none" stroke="#191970" d="M63.4992,-72.5886C75.6812,-67.6376 89.2305,-62.1309 100.4136,-57.5859"/>
<polygon fill="#191970" stroke="#191970" points="62.0403,-69.4034 54.094,-76.411 64.6759,-75.8883 62.0403,-69.4034"/>
</g>
<!-- Node7 -->
<g id="node7" class="node">
<title>Node7</title>
<g id="a_node7"><a xlink:href="twz-generator-threaded_8c.html#a3ceba978f59ad2ad586f0ad1b3d712d9" target="_top" xlink:title="fTWO">
<polygon fill="#ffffff" stroke="#000000" points="102.5,-.5 102.5,-19.5 145.5,-19.5 145.5,-.5 102.5,-.5"/>
<text text-anchor="middle" x="124" y="-7.5" font-family="Helvetica,sans-Serif" font-size="10.00" fill="#000000">fTWO</text>
</a>
</g>
</g>
<!-- Node1&#45;&gt;Node7 -->
<g id="edge8" class="edge">
<title>Node1&#45;&gt;Node7</title>
<path fill="none" stroke="#191970" d="M48.8906,-69.4085C62.0247,-57.766 80.2601,-42.0165 97,-29 101.0724,-25.8334 105.6184,-22.545 109.8018,-19.6118"/>
<polygon fill="#191970" stroke="#191970" points="46.1922,-67.1256 41.0632,-76.3961 50.8539,-72.3475 46.1922,-67.1256"/>
</g>
<!-- Node4 -->
<g id="node4" class="node">
<title>Node4</title>
<g id="a_node4"><a xlink:href="twz-generator-threaded_8c.html#a0ddf1224851353fc92bfbff6f499fa97" target="_top" xlink:title="main">
<polygon fill="#ffffff" stroke="#000000" points="187,-57.5 187,-76.5 225,-76.5 225,-57.5 187,-57.5"/>
<text text-anchor="middle" x="206" y="-64.5" font-family="Helvetica,sans-Serif" font-size="10.00" fill="#000000">main</text>
</a>
</g>
</g>
<!-- Node3&#45;&gt;Node4 -->
<g id="edge3" class="edge">
<title>Node3&#45;&gt;Node4</title>
<path fill="none" stroke="#191970" d="M146.4346,-108.4052C161.1067,-98.2063 179.7999,-85.2123 192.2952,-76.5265"/>
<polygon fill="#191970" stroke="#191970" points="144.1236,-105.7491 137.9102,-114.3307 148.119,-111.4969 144.1236,-105.7491"/>
</g>
<!-- Node5&#45;&gt;Node4 -->
<g id="edge5" class="edge">
<title>Node5&#45;&gt;Node4</title>
<path fill="none" stroke="#191970" d="M154.5943,-78.9111C165.3606,-76.4164 177.152,-73.6843 186.7228,-71.4667"/>
<polygon fill="#191970" stroke="#191970" points="153.6439,-75.5385 144.6921,-81.2055 155.224,-82.3578 153.6439,-75.5385"/>
</g>
<!-- Node6&#45;&gt;Node4 -->
<g id="edge7" class="edge">
<title>Node6&#45;&gt;Node4</title>
<path fill="none" stroke="#191970" d="M161.143,-56.6063C170.0282,-58.6651 179.1573,-60.7803 186.841,-62.5607"/>
<polygon fill="#191970" stroke="#191970" points="161.8368,-53.1744 151.3048,-54.3267 160.2566,-59.9937 161.8368,-53.1744"/>
</g>
<!-- Node7&#45;&gt;Node4 -->
<g id="edge9" class="edge">
<title>Node7&#45;&gt;Node4</title>
<path fill="none" stroke="#191970" d="M146.4346,-25.5948C161.1067,-35.7937 179.7999,-48.7877 192.2952,-57.4735"/>
<polygon fill="#191970" stroke="#191970" points="148.119,-22.5031 137.9102,-19.6693 144.1236,-28.2509 148.119,-22.5031"/>
</g>
</g>
</svg>
