<?xml version="1.0" encoding="UTF-8" standalone="no"?>
<!DOCTYPE svg PUBLIC "-//W3C//DTD SVG 1.1//EN"
 "http://www.w3.org/Graphics/SVG/1.1/DTD/svg11.dtd">
<!-- Generated by graphviz version 2.40.1 (20161225.0304)
 -->
<!-- Title: twz&#45;point.c Pages: 1 -->
<svg width="852pt" height="84pt"
 viewBox="0.00 0.00 851.50 84.00" xmlns="http://www.w3.org/2000/svg" xmlns:xlink="http://www.w3.org/1999/xlink">
<g id="graph0" class="graph" transform="scale(1 1) rotate(0) translate(4 80)">
<title>twz&#45;point.c</title>
<polygon fill="#ffffff" stroke="transparent" points="-4,4 -4,-80 847.5,-80 847.5,4 -4,4"/>
<!-- Node0 -->
<g id="node1" class="node">
<title>Node0</title>
<polygon fill="#bfbfbf" stroke="#000000" points="288,-56.5 288,-75.5 353,-75.5 353,-56.5 288,-56.5"/>
<text text-anchor="middle" x="320.5" y="-63.5" font-family="Helvetica,sans-Serif" font-size="10.00" fill="#000000">twz&#45;point.c</text>
</g>
<!-- Node1 -->
<g id="node2" class="node">
<title>Node1</title>
<polygon fill="#ffffff" stroke="#bfbfbf" points="0,-.5 0,-19.5 47,-19.5 47,-.5 0,-.5"/>
<text text-anchor="middle" x="23.5" y="-7.5" font-family="Helvetica,sans-Serif" font-size="10.00" fill="#000000">math.h</text>
</g>
<!-- Node0&#45;&gt;Node1 -->
<g id="edge1" class="edge">
<title>Node0&#45;&gt;Node1</title>
<path fill="none" stroke="#191970" d="M287.7255,-61.5998C239.3716,-54.8245 145.946,-40.6544 57.1616,-19.9181"/>
<polygon fill="#191970" stroke="#191970" points="57.7364,-16.4575 47.1989,-17.5584 56.123,-23.269 57.7364,-16.4575"/>
</g>
<!-- Node2 -->
<g id="node3" class="node">
<title>Node2</title>
<polygon fill="#ffffff" stroke="#bfbfbf" points="65.5,-.5 65.5,-19.5 111.5,-19.5 111.5,-.5 65.5,-.5"/>
<text text-anchor="middle" x="88.5" y="-7.5" font-family="Helvetica,sans-Serif" font-size="10.00" fill="#000000">stdio.h</text>
</g>
<!-- Node0&#45;&gt;Node2 -->
<g id="edge2" class="edge">
<title>Node0&#45;&gt;Node2</title>
<path fill="none" stroke="#191970" d="M287.7457,-59.2745C249.9175,-51.3306 185.6327,-37.2905 121.3984,-20.0953"/>
<polygon fill="#191970" stroke="#191970" points="122.0769,-16.6531 111.51,-17.4226 120.2504,-23.4107 122.0769,-16.6531"/>
</g>
<!-- Node3 -->
<g id="node4" class="node">
<title>Node3</title>
<polygon fill="#ffffff" stroke="#bfbfbf" points="129.5,-.5 129.5,-19.5 177.5,-19.5 177.5,-.5 129.5,-.5"/>
<text text-anchor="middle" x="153.5" y="-7.5" font-family="Helvetica,sans-Serif" font-size="10.00" fill="#000000">stdlib.h</text>
</g>
<!-- Node0&#45;&gt;Node3 -->
<g id="edge3" class="edge">
<title>Node0&#45;&gt;Node3</title>
<path fill="none" stroke="#191970" d="M291.7917,-56.3733C262.8018,-46.6521 218.036,-31.6408 187.3374,-21.3467"/>
<polygon fill="#191970" stroke="#191970" points="188.1029,-17.9119 177.5089,-18.0509 185.8773,-24.5487 188.1029,-17.9119"/>
</g>
<!-- Node4 -->
<g id="node5" class="node">
<title>Node4</title>
<polygon fill="#ffffff" stroke="#bfbfbf" points="196,-.5 196,-19.5 245,-19.5 245,-.5 196,-.5"/>
<text text-anchor="middle" x="220.5" y="-7.5" font-family="Helvetica,sans-Serif" font-size="10.00" fill="#000000">stdint.h</text>
</g>
<!-- Node0&#45;&gt;Node4 -->
<g id="edge4" class="edge">
<title>Node0&#45;&gt;Node4</title>
<path fill="none" stroke="#191970" d="M303.0813,-56.2455C287.4515,-47.4928 264.2981,-34.527 246.4815,-24.5496"/>
<polygon fill="#191970" stroke="#191970" points="248.1543,-21.475 237.7191,-19.6427 244.734,-27.5825 248.1543,-21.475"/>
</g>
<!-- Node5 -->
<g id="node6" class="node">
<title>Node5</title>
<polygon fill="#ffffff" stroke="#bfbfbf" points="263,-.5 263,-19.5 312,-19.5 312,-.5 263,-.5"/>
<text text-anchor="middle" x="287.5" y="-7.5" font-family="Helvetica,sans-Serif" font-size="10.00" fill="#000000">string.h</text>
</g>
<!-- Node0&#45;&gt;Node5 -->
<g id="edge5" class="edge">
<title>Node0&#45;&gt;Node5</title>
<path fill="none" stroke="#191970" d="M314.7518,-56.2455C310.2565,-48.617 303.8752,-37.7881 298.4175,-28.5267"/>
<polygon fill="#191970" stroke="#191970" points="301.2747,-26.4811 293.1823,-19.6427 295.2439,-30.035 301.2747,-26.4811"/>
</g>
<!-- Node6 -->
<g id="node7" class="node">
<title>Node6</title>
<polygon fill="#ffffff" stroke="#bfbfbf" points="330,-.5 330,-19.5 379,-19.5 379,-.5 330,-.5"/>
<text text-anchor="middle" x="354.5" y="-7.5" font-family="Helvetica,sans-Serif" font-size="10.00" fill="#000000">ctype.h</text>
</g>
<!-- Node0&#45;&gt;Node6 -->
<g id="edge6" class="edge">
<title>Node0&#45;&gt;Node6</title>
<path fill="none" stroke="#191970" d="M326.4223,-56.2455C331.1027,-48.5367 337.7673,-37.5598 343.4289,-28.2348"/>
<polygon fill="#191970" stroke="#191970" points="346.4475,-30.007 348.6455,-19.6427 340.4639,-26.3741 346.4475,-30.007"/>
</g>
<!-- Node7 -->
<g id="node8" class="node">
<title>Node7</title>
<polygon fill="#ffffff" stroke="#bfbfbf" points="397.5,-.5 397.5,-19.5 495.5,-19.5 495.5,-.5 397.5,-.5"/>
<text text-anchor="middle" x="446.5" y="-7.5" font-family="Helvetica,sans-Serif" font-size="10.00" fill="#000000">DATA/DATA.TW1</text>
</g>
<!-- Node0&#45;&gt;Node7 -->
<g id="edge7" class="edge">
<title>Node0&#45;&gt;Node7</title>
<path fill="none" stroke="#191970" d="M342.1602,-56.3733C362.4772,-47.3435 393.064,-33.7494 415.875,-23.6111"/>
<polygon fill="#191970" stroke="#191970" points="417.4059,-26.7609 425.1225,-19.5011 414.5628,-20.3642 417.4059,-26.7609"/>
</g>
<!-- Node8 -->
<g id="node9" class="node">
<title>Node8</title>
<polygon fill="#ffffff" stroke="#bfbfbf" points="513.5,-.5 513.5,-19.5 611.5,-19.5 611.5,-.5 513.5,-.5"/>
<text text-anchor="middle" x="562.5" y="-7.5" font-family="Helvetica,sans-Serif" font-size="10.00" fill="#000000">DATA/DATA.TW2</text>
</g>
<!-- Node0&#45;&gt;Node8 -->
<g id="edge8" class="edge">
<title>Node0&#45;&gt;Node8</title>
<path fill="none" stroke="#191970" d="M353.1372,-58.4476C393.728,-49.0547 463.4893,-32.9116 511.2436,-21.861"/>
<polygon fill="#191970" stroke="#191970" points="512.1279,-25.2489 521.0814,-19.5845 510.5497,-18.4291 512.1279,-25.2489"/>
</g>
<!-- Node9 -->
<g id="node10" class="node">
<title>Node9</title>
<polygon fill="#ffffff" stroke="#bfbfbf" points="629.5,-.5 629.5,-19.5 727.5,-19.5 727.5,-.5 629.5,-.5"/>
<text text-anchor="middle" x="678.5" y="-7.5" font-family="Helvetica,sans-Serif" font-size="10.00" fill="#000000">DATA/DATA.TW3</text>
</g>
<!-- Node0&#45;&gt;Node9 -->
<g id="edge9" class="edge">
<title>Node0&#45;&gt;Node9</title>
<path fill="none" stroke="#191970" d="M353.3815,-61.1625C406.8894,-53.246 516.3847,-36.862 619.5056,-20.1396"/>
<polygon fill="#191970" stroke="#191970" points="620.1544,-23.5802 629.463,-18.5206 619.0309,-16.6709 620.1544,-23.5802"/>
</g>
<!-- Node10 -->
<g id="node11" class="node">
<title>Node10</title>
<polygon fill="#ffffff" stroke="#bfbfbf" points="745.5,-.5 745.5,-19.5 843.5,-19.5 843.5,-.5 745.5,-.5"/>
<text text-anchor="middle" x="794.5" y="-7.5" font-family="Helvetica,sans-Serif" font-size="10.00" fill="#000000">DATA/DATA.TW4</text>
</g>
<!-- Node0&#45;&gt;Node10 -->
<g id="edge10" class="edge">
<title>Node0&#45;&gt;Node10</title>
<path fill="none" stroke="#191970" d="M353.214,-63.0629C421.9488,-56.7459 586.6072,-40.8481 735.2647,-20.1033"/>
<polygon fill="#191970" stroke="#191970" points="736.0701,-23.5246 745.4851,-18.6657 735.0951,-16.5928 736.0701,-23.5246"/>
</g>
</g>
</svg>
