<?xml version="1.0" encoding="UTF-8" standalone="no"?>
<!DOCTYPE svg PUBLIC "-//W3C//DTD SVG 1.1//EN"
 "http://www.w3.org/Graphics/SVG/1.1/DTD/svg11.dtd">
<!-- Generated by graphviz version 2.40.1 (20161225.0304)
 -->
<!-- Title: twz&#45;generator.c Pages: 1 -->
<svg width="785pt" height="84pt"
 viewBox="0.00 0.00 784.50 84.00" xmlns="http://www.w3.org/2000/svg" xmlns:xlink="http://www.w3.org/1999/xlink">
<g id="graph0" class="graph" transform="scale(1 1) rotate(0) translate(4 80)">
<title>twz&#45;generator.c</title>
<polygon fill="#ffffff" stroke="transparent" points="-4,4 -4,-80 780.5,-80 780.5,4 -4,4"/>
<!-- Node0 -->
<g id="node1" class="node">
<title>Node0</title>
<polygon fill="#bfbfbf" stroke="#000000" points="245.5,-56.5 245.5,-75.5 329.5,-75.5 329.5,-56.5 245.5,-56.5"/>
<text text-anchor="middle" x="287.5" y="-63.5" font-family="Helvetica,sans-Serif" font-size="10.00" fill="#000000">twz&#45;generator.c</text>
</g>
<!-- Node1 -->
<g id="node2" class="node">
<title>Node1</title>
<polygon fill="#ffffff" stroke="#bfbfbf" points="0,-.5 0,-19.5 47,-19.5 47,-.5 0,-.5"/>
<text text-anchor="middle" x="23.5" y="-7.5" font-family="Helvetica,sans-Serif" font-size="10.00" fill="#000000">math.h</text>
</g>
<!-- Node0&#45;&gt;Node1 -->
<g id="edge1" class="edge">
<title>Node0&#45;&gt;Node1</title>
<path fill="none" stroke="#191970" d="M245.4955,-58.9085C201.0818,-51.1287 128.8099,-37.6702 57.2984,-20.0089"/>
<polygon fill="#191970" stroke="#191970" points="57.7661,-16.5182 47.2158,-17.4891 56.0688,-23.3094 57.7661,-16.5182"/>
</g>
<!-- Node2 -->
<g id="node3" class="node">
<title>Node2</title>
<polygon fill="#ffffff" stroke="#bfbfbf" points="65.5,-.5 65.5,-19.5 111.5,-19.5 111.5,-.5 65.5,-.5"/>
<text text-anchor="middle" x="88.5" y="-7.5" font-family="Helvetica,sans-Serif" font-size="10.00" fill="#000000">stdio.h</text>
</g>
<!-- Node0&#45;&gt;Node2 -->
<g id="edge2" class="edge">
<title>Node0&#45;&gt;Node2</title>
<path fill="none" stroke="#191970" d="M251.5654,-56.4816C219.7294,-47.9646 171.7603,-34.927 121.3226,-20.1766"/>
<polygon fill="#191970" stroke="#191970" points="122.1246,-16.7644 111.5435,-17.3041 120.1517,-23.4806 122.1246,-16.7644"/>
</g>
<!-- Node3 -->
<g id="node4" class="node">
<title>Node3</title>
<polygon fill="#ffffff" stroke="#bfbfbf" points="129.5,-.5 129.5,-19.5 177.5,-19.5 177.5,-.5 129.5,-.5"/>
<text text-anchor="middle" x="153.5" y="-7.5" font-family="Helvetica,sans-Serif" font-size="10.00" fill="#000000">stdlib.h</text>
</g>
<!-- Node0&#45;&gt;Node3 -->
<g id="edge3" class="edge">
<title>Node0&#45;&gt;Node3</title>
<path fill="none" stroke="#191970" d="M264.4646,-56.3733C242.7612,-47.3032 210.0382,-33.6279 185.745,-23.4755"/>
<polygon fill="#191970" stroke="#191970" points="186.8111,-20.1278 176.2348,-19.5011 184.1119,-26.5865 186.8111,-20.1278"/>
</g>
<!-- Node4 -->
<g id="node5" class="node">
<title>Node4</title>
<polygon fill="#ffffff" stroke="#bfbfbf" points="196,-.5 196,-19.5 245,-19.5 245,-.5 196,-.5"/>
<text text-anchor="middle" x="220.5" y="-7.5" font-family="Helvetica,sans-Serif" font-size="10.00" fill="#000000">stdint.h</text>
</g>
<!-- Node0&#45;&gt;Node4 -->
<g id="edge4" class="edge">
<title>Node0&#45;&gt;Node4</title>
<path fill="none" stroke="#191970" d="M275.8295,-56.2455C265.9339,-47.9746 251.5373,-35.9416 239.9099,-26.2232"/>
<polygon fill="#191970" stroke="#191970" points="241.9542,-23.3703 232.0368,-19.6427 237.465,-28.7413 241.9542,-23.3703"/>
</g>
<!-- Node5 -->
<g id="node6" class="node">
<title>Node5</title>
<polygon fill="#ffffff" stroke="#bfbfbf" points="263,-.5 263,-19.5 312,-19.5 312,-.5 263,-.5"/>
<text text-anchor="middle" x="287.5" y="-7.5" font-family="Helvetica,sans-Serif" font-size="10.00" fill="#000000">string.h</text>
</g>
<!-- Node0&#45;&gt;Node5 -->
<g id="edge5" class="edge">
<title>Node0&#45;&gt;Node5</title>
<path fill="none" stroke="#191970" d="M287.5,-56.2455C287.5,-48.9382 287.5,-38.6944 287.5,-29.7046"/>
<polygon fill="#191970" stroke="#191970" points="291.0001,-29.6426 287.5,-19.6427 284.0001,-29.6427 291.0001,-29.6426"/>
</g>
<!-- Node6 -->
<g id="node7" class="node">
<title>Node6</title>
<polygon fill="#ffffff" stroke="#bfbfbf" points="330.5,-.5 330.5,-19.5 428.5,-19.5 428.5,-.5 330.5,-.5"/>
<text text-anchor="middle" x="379.5" y="-7.5" font-family="Helvetica,sans-Serif" font-size="10.00" fill="#000000">DATA/DATA.TW1</text>
</g>
<!-- Node0&#45;&gt;Node6 -->
<g id="edge6" class="edge">
<title>Node0&#45;&gt;Node6</title>
<path fill="none" stroke="#191970" d="M303.5252,-56.2455C317.6408,-47.6534 338.4263,-35.0014 354.6899,-25.1018"/>
<polygon fill="#191970" stroke="#191970" points="356.9363,-27.8319 363.6585,-19.6427 353.2966,-21.8525 356.9363,-27.8319"/>
</g>
<!-- Node7 -->
<g id="node8" class="node">
<title>Node7</title>
<polygon fill="#ffffff" stroke="#bfbfbf" points="446.5,-.5 446.5,-19.5 544.5,-19.5 544.5,-.5 446.5,-.5"/>
<text text-anchor="middle" x="495.5" y="-7.5" font-family="Helvetica,sans-Serif" font-size="10.00" fill="#000000">DATA/DATA.TW2</text>
</g>
<!-- Node0&#45;&gt;Node7 -->
<g id="edge7" class="edge">
<title>Node0&#45;&gt;Node7</title>
<path fill="none" stroke="#191970" d="M323.2565,-56.3733C358.4426,-46.9001 412.2881,-32.4032 450.3956,-22.1435"/>
<polygon fill="#191970" stroke="#191970" points="451.4639,-25.4806 460.2101,-19.5011 449.644,-18.7213 451.4639,-25.4806"/>
</g>
<!-- Node8 -->
<g id="node9" class="node">
<title>Node8</title>
<polygon fill="#ffffff" stroke="#bfbfbf" points="562.5,-.5 562.5,-19.5 660.5,-19.5 660.5,-.5 562.5,-.5"/>
<text text-anchor="middle" x="611.5" y="-7.5" font-family="Helvetica,sans-Serif" font-size="10.00" fill="#000000">DATA/DATA.TW3</text>
</g>
<!-- Node0&#45;&gt;Node8 -->
<g id="edge8" class="edge">
<title>Node0&#45;&gt;Node8</title>
<path fill="none" stroke="#191970" d="M329.5252,-58.7364C386.3289,-48.9185 487.9056,-31.362 552.3849,-20.2174"/>
<polygon fill="#191970" stroke="#191970" points="553.1447,-23.6381 562.4024,-18.486 551.9524,-16.7404 553.1447,-23.6381"/>
</g>
<!-- Node9 -->
<g id="node10" class="node">
<title>Node9</title>
<polygon fill="#ffffff" stroke="#bfbfbf" points="678.5,-.5 678.5,-19.5 776.5,-19.5 776.5,-.5 678.5,-.5"/>
<text text-anchor="middle" x="727.5" y="-7.5" font-family="Helvetica,sans-Serif" font-size="10.00" fill="#000000">DATA/DATA.TW4</text>
</g>
<!-- Node0&#45;&gt;Node9 -->
<g id="edge9" class="edge">
<title>Node0&#45;&gt;Node9</title>
<path fill="none" stroke="#191970" d="M329.7052,-61.6278C398.4312,-54.3531 539.0242,-38.8267 668.3936,-20.102"/>
<polygon fill="#191970" stroke="#191970" points="669.0895,-23.5377 678.4803,-18.6321 668.0801,-16.6108 669.0895,-23.5377"/>
</g>
</g>
</svg>
