<?xml version="1.0" encoding="UTF-8" standalone="no"?>
<!DOCTYPE svg PUBLIC "-//W3C//DTD SVG 1.1//EN"
 "http://www.w3.org/Graphics/SVG/1.1/DTD/svg11.dtd">
<!-- Generated by graphviz version 2.40.1 (20161225.0304)
 -->
<!-- Title: fTWO Pages: 1 -->
<svg width="154pt" height="104pt"
 viewBox="0.00 0.00 154.00 104.00" xmlns="http://www.w3.org/2000/svg" xmlns:xlink="http://www.w3.org/1999/xlink">
<g id="graph0" class="graph" transform="scale(1 1) rotate(0) translate(4 100)">
<title>fTWO</title>
<polygon fill="#ffffff" stroke="transparent" points="-4,4 -4,-100 150,-100 150,4 -4,4"/>
<!-- Node33 -->
<g id="node1" class="node">
<title>Node33</title>
<polygon fill="#bfbfbf" stroke="#000000" points="0,-38.5 0,-57.5 43,-57.5 43,-38.5 0,-38.5"/>
<text text-anchor="middle" x="21.5" y="-45.5" font-family="Helvetica,sans-Serif" font-size="10.00" fill="#000000">fTWO</text>
</g>
<!-- Node34 -->
<g id="node2" class="node">
<title>Node34</title>
<g id="a_node2"><a xlink:href="twz-generator-threaded_8c.html#a9a2cbd4f64ce0054305751682775a58e" target="_top" xlink:title="div_power">
<polygon fill="#ffffff" stroke="#000000" points="82,-76.5 82,-95.5 143,-95.5 143,-76.5 82,-76.5"/>
<text text-anchor="middle" x="112.5" y="-83.5" font-family="Helvetica,sans-Serif" font-size="10.00" fill="#000000">div_power</text>
</a>
</g>
</g>
<!-- Node33&#45;&gt;Node34 -->
<g id="edge1" class="edge">
<title>Node33&#45;&gt;Node34</title>
<path fill="none" stroke="#191970" d="M43.0657,-57.0055C54.0973,-61.612 67.7528,-67.3144 80.0272,-72.4399"/>
<polygon fill="#191970" stroke="#191970" points="78.9218,-75.7712 89.4983,-76.3949 81.6192,-69.3118 78.9218,-75.7712"/>
</g>
<!-- Node35 -->
<g id="node3" class="node">
<title>Node35</title>
<g id="a_node3"><a xlink:href="twz-generator-threaded_8c.html#a4332cc88466edf2f357989d3a3c5486f" target="_top" xlink:title="mult_power">
<polygon fill="#ffffff" stroke="#000000" points="79,-38.5 79,-57.5 146,-57.5 146,-38.5 79,-38.5"/>
<text text-anchor="middle" x="112.5" y="-45.5" font-family="Helvetica,sans-Serif" font-size="10.00" fill="#000000">mult_power</text>
</a>
</g>
</g>
<!-- Node33&#45;&gt;Node35 -->
<g id="edge2" class="edge">
<title>Node33&#45;&gt;Node35</title>
<path fill="none" stroke="#191970" d="M43.0657,-48C50.8559,-48 59.9546,-48 68.9514,-48"/>
<polygon fill="#191970" stroke="#191970" points="68.9906,-51.5001 78.9905,-48 68.9905,-44.5001 68.9906,-51.5001"/>
</g>
<!-- Node36 -->
<g id="node4" class="node">
<title>Node36</title>
<g id="a_node4"><a xlink:href="twz-generator-threaded_8c.html#afdec3708b8532f90a47e9d8f55aadac2" target="_top" xlink:title="v">
<polygon fill="#ffffff" stroke="#000000" points="98,-.5 98,-19.5 127,-19.5 127,-.5 98,-.5"/>
<text text-anchor="middle" x="112.5" y="-7.5" font-family="Helvetica,sans-Serif" font-size="10.00" fill="#000000">v</text>
</a>
</g>
</g>
<!-- Node33&#45;&gt;Node36 -->
<g id="edge3" class="edge">
<title>Node33&#45;&gt;Node36</title>
<path fill="none" stroke="#191970" d="M43.0657,-38.9945C56.6841,-33.3077 74.3015,-25.951 88.3825,-20.071"/>
<polygon fill="#191970" stroke="#191970" points="90.0239,-23.1786 97.9029,-16.0955 87.3265,-16.7192 90.0239,-23.1786"/>
</g>
</g>
</svg>
