<?xml version="1.0" encoding="UTF-8" standalone="no"?>
<!DOCTYPE svg PUBLIC "-//W3C//DTD SVG 1.1//EN"
 "http://www.w3.org/Graphics/SVG/1.1/DTD/svg11.dtd">
<!-- Generated by graphviz version 2.40.1 (20161225.0304)
 -->
<!-- Title: f Pages: 1 -->
<svg width="140pt" height="104pt"
 viewBox="0.00 0.00 140.00 104.00" xmlns="http://www.w3.org/2000/svg" xmlns:xlink="http://www.w3.org/1999/xlink">
<g id="graph0" class="graph" transform="scale(1 1) rotate(0) translate(4 100)">
<title>f</title>
<polygon fill="#ffffff" stroke="transparent" points="-4,4 -4,-100 136,-100 136,4 -4,4"/>
<!-- Node4 -->
<g id="node1" class="node">
<title>Node4</title>
<polygon fill="#bfbfbf" stroke="#000000" points="0,-38.5 0,-57.5 29,-57.5 29,-38.5 0,-38.5"/>
<text text-anchor="middle" x="14.5" y="-45.5" font-family="Helvetica,sans-Serif" font-size="10.00" fill="#000000">f</text>
</g>
<!-- Node5 -->
<g id="node2" class="node">
<title>Node5</title>
<g id="a_node2"><a xlink:href="twz-point_8c.html#a9a2cbd4f64ce0054305751682775a58e" target="_top" xlink:title="div_power">
<polygon fill="#ffffff" stroke="#000000" points="68,-76.5 68,-95.5 129,-95.5 129,-76.5 68,-76.5"/>
<text text-anchor="middle" x="98.5" y="-83.5" font-family="Helvetica,sans-Serif" font-size="10.00" fill="#000000">div_power</text>
</a>
</g>
</g>
<!-- Node4&#45;&gt;Node5 -->
<g id="edge1" class="edge">
<title>Node4&#45;&gt;Node5</title>
<path fill="none" stroke="#191970" d="M29.1317,-54.6191C39.8738,-59.4786 54.8466,-66.252 68.1331,-72.2626"/>
<polygon fill="#191970" stroke="#191970" points="66.8715,-75.5333 77.4252,-76.4662 69.7567,-69.1556 66.8715,-75.5333"/>
</g>
<!-- Node6 -->
<g id="node3" class="node">
<title>Node6</title>
<g id="a_node3"><a xlink:href="twz-point_8c.html#a4332cc88466edf2f357989d3a3c5486f" target="_top" xlink:title="mult_power">
<polygon fill="#ffffff" stroke="#000000" points="65,-38.5 65,-57.5 132,-57.5 132,-38.5 65,-38.5"/>
<text text-anchor="middle" x="98.5" y="-45.5" font-family="Helvetica,sans-Serif" font-size="10.00" fill="#000000">mult_power</text>
</a>
</g>
</g>
<!-- Node4&#45;&gt;Node6 -->
<g id="edge2" class="edge">
<title>Node4&#45;&gt;Node6</title>
<path fill="none" stroke="#191970" d="M29.1317,-48C36.3807,-48 45.5564,-48 54.8403,-48"/>
<polygon fill="#191970" stroke="#191970" points="54.8709,-51.5001 64.8709,-48 54.8708,-44.5001 54.8709,-51.5001"/>
</g>
<!-- Node7 -->
<g id="node4" class="node">
<title>Node7</title>
<g id="a_node4"><a xlink:href="twz-point_8c.html#afdec3708b8532f90a47e9d8f55aadac2" target="_top" xlink:title="v">
<polygon fill="#ffffff" stroke="#000000" points="84,-.5 84,-19.5 113,-19.5 113,-.5 84,-.5"/>
<text text-anchor="middle" x="98.5" y="-7.5" font-family="Helvetica,sans-Serif" font-size="10.00" fill="#000000">v</text>
</a>
</g>
</g>
<!-- Node4&#45;&gt;Node7 -->
<g id="edge3" class="edge">
<title>Node4&#45;&gt;Node7</title>
<path fill="none" stroke="#191970" d="M29.1317,-41.3809C41.5821,-35.7486 59.7159,-27.5452 74.3204,-20.9384"/>
<polygon fill="#191970" stroke="#191970" points="76.0857,-23.9814 83.7541,-16.6707 73.2005,-17.6036 76.0857,-23.9814"/>
</g>
</g>
</svg>
