<?xml version="1.0" encoding="UTF-8" standalone="no"?>
<!DOCTYPE svg PUBLIC "-//W3C//DTD SVG 1.1//EN"
 "http://www.w3.org/Graphics/SVG/1.1/DTD/svg11.dtd">
<!-- Generated by graphviz version 2.40.1 (20161225.0304)
 -->
<!-- Title: v Pages: 1 -->
<svg width="201pt" height="180pt"
 viewBox="0.00 0.00 201.00 180.00" xmlns="http://www.w3.org/2000/svg" xmlns:xlink="http://www.w3.org/1999/xlink">
<g id="graph0" class="graph" transform="scale(1 1) rotate(0) translate(4 176)">
<title>v</title>
<polygon fill="#ffffff" stroke="transparent" points="-4,4 -4,-176 197,-176 197,4 -4,4"/>
<!-- Node85 -->
<g id="node1" class="node">
<title>Node85</title>
<polygon fill="#bfbfbf" stroke="#000000" points="0,-76.5 0,-95.5 29,-95.5 29,-76.5 0,-76.5"/>
<text text-anchor="middle" x="14.5" y="-83.5" font-family="Helvetica,sans-Serif" font-size="10.00" fill="#000000">v</text>
</g>
<!-- Node86 -->
<g id="node2" class="node">
<title>Node86</title>
<g id="a_node2"><a xlink:href="twz-generator-threaded_8c.html#a96b227aeaa6038dbf6b76d6bda848356" target="_top" xlink:title="f">
<polygon fill="#ffffff" stroke="#000000" points="77.5,-152.5 77.5,-171.5 106.5,-171.5 106.5,-152.5 77.5,-152.5"/>
<text text-anchor="middle" x="92" y="-159.5" font-family="Helvetica,sans-Serif" font-size="10.00" fill="#000000">f</text>
</a>
</g>
</g>
<!-- Node85&#45;&gt;Node86 -->
<g id="edge1" class="edge">
<title>Node85&#45;&gt;Node86</title>
<path fill="none" stroke="#191970" d="M28.3809,-103.7259C38.0235,-115.4983 51.5168,-130.9458 65,-143 68.7603,-146.3618 73.1259,-149.6575 77.2362,-152.5352"/>
<polygon fill="#191970" stroke="#191970" points="31.0878,-101.5069 22.0954,-95.9044 25.6314,-105.8918 31.0878,-101.5069"/>
</g>
<!-- Node87 -->
<g id="node3" class="node">
<title>Node87</title>
<g id="a_node3"><a xlink:href="twz-generator-threaded_8c.html#a4b393e7844e62f6f41c4771c69855766" target="_top" xlink:title="fFOUR">
<polygon fill="#ffffff" stroke="#000000" points="68,-114.5 68,-133.5 116,-133.5 116,-114.5 68,-114.5"/>
<text text-anchor="middle" x="92" y="-121.5" font-family="Helvetica,sans-Serif" font-size="10.00" fill="#000000">fFOUR</text>
</a>
</g>
</g>
<!-- Node85&#45;&gt;Node87 -->
<g id="edge2" class="edge">
<title>Node85&#45;&gt;Node87</title>
<path fill="none" stroke="#191970" d="M38.1406,-97.5915C49.1456,-102.9875 62.0783,-109.3287 72.5123,-114.4447"/>
<polygon fill="#191970" stroke="#191970" points="39.5968,-94.4075 29.0772,-93.1475 36.515,-100.6926 39.5968,-94.4075"/>
</g>
<!-- Node89 -->
<g id="node5" class="node">
<title>Node89</title>
<g id="a_node5"><a xlink:href="twz-generator-threaded_8c.html#a5258ab912d9e37b030667e0f76a7274d" target="_top" xlink:title="fONE">
<polygon fill="#ffffff" stroke="#000000" points="71.5,-76.5 71.5,-95.5 112.5,-95.5 112.5,-76.5 71.5,-76.5"/>
<text text-anchor="middle" x="92" y="-83.5" font-family="Helvetica,sans-Serif" font-size="10.00" fill="#000000">fONE</text>
</a>
</g>
</g>
<!-- Node85&#45;&gt;Node89 -->
<g id="edge4" class="edge">
<title>Node85&#45;&gt;Node89</title>
<path fill="none" stroke="#191970" d="M39.1655,-86C49.5312,-86 61.4532,-86 71.3459,-86"/>
<polygon fill="#191970" stroke="#191970" points="39.0772,-82.5001 29.0772,-86 39.0771,-89.5001 39.0772,-82.5001"/>
</g>
<!-- Node90 -->
<g id="node6" class="node">
<title>Node90</title>
<g id="a_node6"><a xlink:href="twz-generator-threaded_8c.html#a0c5c9001265cb7e7630435b501d2c8d7" target="_top" xlink:title="fTHREE">
<polygon fill="#ffffff" stroke="#000000" points="65,-38.5 65,-57.5 119,-57.5 119,-38.5 65,-38.5"/>
<text text-anchor="middle" x="92" y="-45.5" font-family="Helvetica,sans-Serif" font-size="10.00" fill="#000000">fTHREE</text>
</a>
</g>
</g>
<!-- Node85&#45;&gt;Node90 -->
<g id="edge6" class="edge">
<title>Node85&#45;&gt;Node90</title>
<path fill="none" stroke="#191970" d="M38.1406,-74.4085C49.1456,-69.0125 62.0783,-62.6713 72.5123,-57.5553"/>
<polygon fill="#191970" stroke="#191970" points="36.515,-71.3074 29.0772,-78.8525 39.5968,-77.5925 36.515,-71.3074"/>
</g>
<!-- Node91 -->
<g id="node7" class="node">
<title>Node91</title>
<g id="a_node7"><a xlink:href="twz-generator-threaded_8c.html#a3ceba978f59ad2ad586f0ad1b3d712d9" target="_top" xlink:title="fTWO">
<polygon fill="#ffffff" stroke="#000000" points="70.5,-.5 70.5,-19.5 113.5,-19.5 113.5,-.5 70.5,-.5"/>
<text text-anchor="middle" x="92" y="-7.5" font-family="Helvetica,sans-Serif" font-size="10.00" fill="#000000">fTWO</text>
</a>
</g>
</g>
<!-- Node85&#45;&gt;Node91 -->
<g id="edge8" class="edge">
<title>Node85&#45;&gt;Node91</title>
<path fill="none" stroke="#191970" d="M28.3809,-68.2741C38.0235,-56.5017 51.5168,-41.0542 65,-29 68.6749,-25.7146 72.9277,-22.4924 76.9556,-19.6616"/>
<polygon fill="#191970" stroke="#191970" points="25.6314,-66.1082 22.0954,-76.0956 31.0878,-70.4931 25.6314,-66.1082"/>
</g>
<!-- Node88 -->
<g id="node4" class="node">
<title>Node88</title>
<g id="a_node4"><a xlink:href="twz-generator-threaded_8c.html#a0ddf1224851353fc92bfbff6f499fa97" target="_top" xlink:title="main">
<polygon fill="#ffffff" stroke="#000000" points="155,-57.5 155,-76.5 193,-76.5 193,-57.5 155,-57.5"/>
<text text-anchor="middle" x="174" y="-64.5" font-family="Helvetica,sans-Serif" font-size="10.00" fill="#000000">main</text>
</a>
</g>
</g>
<!-- Node87&#45;&gt;Node88 -->
<g id="edge3" class="edge">
<title>Node87&#45;&gt;Node88</title>
<path fill="none" stroke="#191970" d="M114.4346,-108.4052C129.1067,-98.2063 147.7999,-85.2123 160.2952,-76.5265"/>
<polygon fill="#191970" stroke="#191970" points="112.1236,-105.7491 105.9102,-114.3307 116.119,-111.4969 112.1236,-105.7491"/>
</g>
<!-- Node89&#45;&gt;Node88 -->
<g id="edge5" class="edge">
<title>Node89&#45;&gt;Node88</title>
<path fill="none" stroke="#191970" d="M122.5943,-78.9111C133.3606,-76.4164 145.152,-73.6843 154.7228,-71.4667"/>
<polygon fill="#191970" stroke="#191970" points="121.6439,-75.5385 112.6921,-81.2055 123.224,-82.3578 121.6439,-75.5385"/>
</g>
<!-- Node90&#45;&gt;Node88 -->
<g id="edge7" class="edge">
<title>Node90&#45;&gt;Node88</title>
<path fill="none" stroke="#191970" d="M129.143,-56.6063C138.0282,-58.6651 147.1573,-60.7803 154.841,-62.5607"/>
<polygon fill="#191970" stroke="#191970" points="129.8368,-53.1744 119.3048,-54.3267 128.2566,-59.9937 129.8368,-53.1744"/>
</g>
<!-- Node91&#45;&gt;Node88 -->
<g id="edge9" class="edge">
<title>Node91&#45;&gt;Node88</title>
<path fill="none" stroke="#191970" d="M114.4346,-25.5948C129.1067,-35.7937 147.7999,-48.7877 160.2952,-57.4735"/>
<polygon fill="#191970" stroke="#191970" points="116.119,-22.5031 105.9102,-19.6693 112.1236,-28.2509 116.119,-22.5031"/>
</g>
</g>
</svg>
