<?xml version="1.0" encoding="UTF-8" standalone="no"?>
<!DOCTYPE svg PUBLIC "-//W3C//DTD SVG 1.1//EN"
 "http://www.w3.org/Graphics/SVG/1.1/DTD/svg11.dtd">
<!-- Generated by graphviz version 2.40.1 (20161225.0304)
 -->
<!-- Title: main Pages: 1 -->
<svg width="274pt" height="370pt"
 viewBox="0.00 0.00 274.00 370.00" xmlns="http://www.w3.org/2000/svg" xmlns:xlink="http://www.w3.org/1999/xlink">
<g id="graph0" class="graph" transform="scale(1 1) rotate(0) translate(4 366)">
<title>main</title>
<polygon fill="#ffffff" stroke="transparent" points="-4,4 -4,-366 270,-366 270,4 -4,4"/>
<!-- Node58 -->
<g id="node1" class="node">
<title>Node58</title>
<polygon fill="#bfbfbf" stroke="#000000" points="0,-171.5 0,-190.5 38,-190.5 38,-171.5 0,-171.5"/>
<text text-anchor="middle" x="19" y="-178.5" font-family="Helvetica,sans-Serif" font-size="10.00" fill="#000000">main</text>
</g>
<!-- Node59 -->
<g id="node2" class="node">
<title>Node59</title>
<g id="a_node2"><a xlink:href="twz-generator-threaded_8c.html#a4b393e7844e62f6f41c4771c69855766" target="_top" xlink:title="fFOUR">
<polygon fill="#ffffff" stroke="#000000" points="94.5,-342.5 94.5,-361.5 142.5,-361.5 142.5,-342.5 94.5,-342.5"/>
<text text-anchor="middle" x="118.5" y="-349.5" font-family="Helvetica,sans-Serif" font-size="10.00" fill="#000000">fFOUR</text>
</a>
</g>
</g>
<!-- Node58&#45;&gt;Node59 -->
<g id="edge1" class="edge">
<title>Node58&#45;&gt;Node59</title>
<path fill="none" stroke="#191970" d="M19.8468,-190.5532C22.6555,-216.7482 33.9041,-290.5786 74,-333 77.1358,-336.3177 80.9456,-339.083 85.0018,-341.381"/>
<polygon fill="#191970" stroke="#191970" points="83.5741,-344.5774 94.1095,-345.6981 86.5724,-338.2521 83.5741,-344.5774"/>
</g>
<!-- Node63 -->
<g id="node6" class="node">
<title>Node63</title>
<g id="a_node6"><a xlink:href="twz-generator-threaded_8c.html#a5258ab912d9e37b030667e0f76a7274d" target="_top" xlink:title="fONE">
<polygon fill="#ffffff" stroke="#000000" points="98,-304.5 98,-323.5 139,-323.5 139,-304.5 98,-304.5"/>
<text text-anchor="middle" x="118.5" y="-311.5" font-family="Helvetica,sans-Serif" font-size="10.00" fill="#000000">fONE</text>
</a>
</g>
</g>
<!-- Node58&#45;&gt;Node63 -->
<g id="edge5" class="edge">
<title>Node58&#45;&gt;Node63</title>
<path fill="none" stroke="#191970" d="M21.1815,-190.6211C26.5256,-212.1399 42.217,-264.6457 74,-295 78.1006,-298.9163 83.1326,-302.0883 88.3196,-304.6362"/>
<polygon fill="#191970" stroke="#191970" points="87.082,-307.9127 97.6562,-308.5744 89.8026,-301.463 87.082,-307.9127"/>
</g>
<!-- Node64 -->
<g id="node7" class="node">
<title>Node64</title>
<g id="a_node7"><a xlink:href="twz-generator-threaded_8c.html#a0c5c9001265cb7e7630435b501d2c8d7" target="_top" xlink:title="fTHREE">
<polygon fill="#ffffff" stroke="#000000" points="91.5,-266.5 91.5,-285.5 145.5,-285.5 145.5,-266.5 91.5,-266.5"/>
<text text-anchor="middle" x="118.5" y="-273.5" font-family="Helvetica,sans-Serif" font-size="10.00" fill="#000000">fTHREE</text>
</a>
</g>
</g>
<!-- Node58&#45;&gt;Node64 -->
<g id="edge9" class="edge">
<title>Node58&#45;&gt;Node64</title>
<path fill="none" stroke="#191970" d="M23.7784,-190.699C32.021,-206.5411 50.3293,-238.0944 74,-257 76.5599,-259.0446 79.3726,-260.9071 82.3017,-262.5957"/>
<polygon fill="#191970" stroke="#191970" points="80.7983,-265.7575 91.3016,-267.1475 83.9576,-259.511 80.7983,-265.7575"/>
</g>
<!-- Node65 -->
<g id="node8" class="node">
<title>Node65</title>
<g id="a_node8"><a xlink:href="twz-generator-threaded_8c.html#a3ceba978f59ad2ad586f0ad1b3d712d9" target="_top" xlink:title="fTWO">
<polygon fill="#ffffff" stroke="#000000" points="97,-228.5 97,-247.5 140,-247.5 140,-228.5 97,-228.5"/>
<text text-anchor="middle" x="118.5" y="-235.5" font-family="Helvetica,sans-Serif" font-size="10.00" fill="#000000">fTWO</text>
</a>
</g>
</g>
<!-- Node58&#45;&gt;Node65 -->
<g id="edge13" class="edge">
<title>Node58&#45;&gt;Node65</title>
<path fill="none" stroke="#191970" d="M31.2082,-190.5002C42.0596,-198.6806 58.553,-210.4795 74,-219 78.2801,-221.3609 82.9134,-223.6301 87.5184,-225.7274"/>
<polygon fill="#191970" stroke="#191970" points="86.2422,-228.9889 96.8086,-229.7651 89.0325,-222.5691 86.2422,-228.9889"/>
</g>
<!-- Node66 -->
<g id="node9" class="node">
<title>Node66</title>
<g id="a_node9"><a xlink:href="twz-generator-threaded_8c.html#a8614827cf795aabd67b3151a1b87988e" target="_top" xlink:title="get_dtzp">
<polygon fill="#ffffff" stroke="#000000" points="91.5,-190.5 91.5,-209.5 145.5,-209.5 145.5,-190.5 91.5,-190.5"/>
<text text-anchor="middle" x="118.5" y="-197.5" font-family="Helvetica,sans-Serif" font-size="10.00" fill="#000000">get_dtzp</text>
</a>
</g>
</g>
<!-- Node58&#45;&gt;Node66 -->
<g id="edge17" class="edge">
<title>Node58&#45;&gt;Node66</title>
<path fill="none" stroke="#191970" d="M38.1846,-184.6634C50.4813,-187.0115 66.8456,-190.1363 81.5935,-192.9525"/>
<polygon fill="#191970" stroke="#191970" points="80.9964,-196.4017 91.4754,-194.8395 82.3094,-189.5259 80.9964,-196.4017"/>
</g>
<!-- Node67 -->
<g id="node10" class="node">
<title>Node67</title>
<g id="a_node10"><a xlink:href="twz-generator-threaded_8c.html#a8e5318d51506def474f1f32712cd7f52" target="_top" xlink:title="get_NegBailout">
<polygon fill="#ffffff" stroke="#000000" points="77,-152.5 77,-171.5 160,-171.5 160,-152.5 77,-152.5"/>
<text text-anchor="middle" x="118.5" y="-159.5" font-family="Helvetica,sans-Serif" font-size="10.00" fill="#000000">get_NegBailout</text>
</a>
</g>
</g>
<!-- Node58&#45;&gt;Node67 -->
<g id="edge18" class="edge">
<title>Node58&#45;&gt;Node67</title>
<path fill="none" stroke="#191970" d="M38.1846,-177.3366C46.4012,-175.7676 56.434,-173.8518 66.5871,-171.913"/>
<polygon fill="#191970" stroke="#191970" points="67.5515,-175.2922 76.7175,-169.9786 66.2385,-168.4164 67.5515,-175.2922"/>
</g>
<!-- Node68 -->
<g id="node11" class="node">
<title>Node68</title>
<g id="a_node11"><a xlink:href="twz-generator-threaded_8c.html#ace8074151866102cdfbb566af0906119" target="_top" xlink:title="get_step">
<polygon fill="#ffffff" stroke="#000000" points="91.5,-76.5 91.5,-95.5 145.5,-95.5 145.5,-76.5 91.5,-76.5"/>
<text text-anchor="middle" x="118.5" y="-83.5" font-family="Helvetica,sans-Serif" font-size="10.00" fill="#000000">get_step</text>
</a>
</g>
</g>
<!-- Node58&#45;&gt;Node68 -->
<g id="edge19" class="edge">
<title>Node58&#45;&gt;Node68</title>
<path fill="none" stroke="#191970" d="M24.7039,-171.2319C33.6868,-156.4942 52.3534,-128.3499 74,-110 78.0802,-106.5412 82.7393,-103.3692 87.4706,-100.5434"/>
<polygon fill="#191970" stroke="#191970" points="89.4573,-103.4449 96.5247,-95.5517 86.0776,-97.3148 89.4573,-103.4449"/>
</g>
<!-- Node69 -->
<g id="node12" class="node">
<title>Node69</title>
<g id="a_node12"><a xlink:href="twz-generator-threaded_8c.html#a834e47e7ea5712bac2e2d0a497817f5a" target="_top" xlink:title="inputerror">
<polygon fill="#ffffff" stroke="#000000" points="204,-76.5 204,-95.5 261,-95.5 261,-76.5 204,-76.5"/>
<text text-anchor="middle" x="232.5" y="-83.5" font-family="Helvetica,sans-Serif" font-size="10.00" fill="#000000">inputerror</text>
</a>
</g>
</g>
<!-- Node58&#45;&gt;Node69 -->
<g id="edge23" class="edge">
<title>Node58&#45;&gt;Node69</title>
<path fill="none" stroke="#191970" d="M31.0884,-171.275C41.8632,-162.9506 58.3111,-151.0665 74,-143 113.2414,-122.8238 161.2885,-106.6295 194.1279,-96.7325"/>
<polygon fill="#191970" stroke="#191970" points="195.2107,-100.0622 203.8047,-93.8658 193.2224,-93.3505 195.2107,-100.0622"/>
</g>
<!-- Node70 -->
<g id="node13" class="node">
<title>Node70</title>
<g id="a_node13"><a xlink:href="twz-generator-threaded_8c.html#a93b0bce052bd1491c322eb859b5f7066" target="_top" xlink:title="get_wave_factor">
<polygon fill="#ffffff" stroke="#000000" points="74,-38.5 74,-57.5 163,-57.5 163,-38.5 74,-38.5"/>
<text text-anchor="middle" x="118.5" y="-45.5" font-family="Helvetica,sans-Serif" font-size="10.00" fill="#000000">get_wave_factor</text>
</a>
</g>
</g>
<!-- Node58&#45;&gt;Node70 -->
<g id="edge21" class="edge">
<title>Node58&#45;&gt;Node70</title>
<path fill="none" stroke="#191970" d="M21.1815,-171.3789C26.5256,-149.8601 42.217,-97.3543 74,-67 75.6289,-65.4444 77.4047,-64.0062 79.2788,-62.6779"/>
<polygon fill="#191970" stroke="#191970" points="81.1489,-65.6382 87.9741,-57.5346 77.5851,-59.6133 81.1489,-65.6382"/>
</g>
<!-- Node71 -->
<g id="node14" class="node">
<title>Node71</title>
<g id="a_node14"><a xlink:href="twz-generator-threaded_8c.html#aefe480fc1bf2e63e95bc86669ae127c1" target="_top" xlink:title="set_powers">
<polygon fill="#ffffff" stroke="#000000" points="85,-.5 85,-19.5 152,-19.5 152,-.5 85,-.5"/>
<text text-anchor="middle" x="118.5" y="-7.5" font-family="Helvetica,sans-Serif" font-size="10.00" fill="#000000">set_powers</text>
</a>
</g>
</g>
<!-- Node58&#45;&gt;Node71 -->
<g id="edge24" class="edge">
<title>Node58&#45;&gt;Node71</title>
<path fill="none" stroke="#191970" d="M19.8468,-171.4468C22.6555,-145.2518 33.9041,-71.4214 74,-29 75.2298,-27.6989 76.5633,-26.4827 77.9746,-25.3464"/>
<polygon fill="#191970" stroke="#191970" points="80.2394,-28.0495 86.7297,-19.6754 76.4338,-22.1743 80.2394,-28.0495"/>
</g>
<!-- Node60 -->
<g id="node3" class="node">
<title>Node60</title>
<g id="a_node3"><a xlink:href="twz-generator-threaded_8c.html#a9a2cbd4f64ce0054305751682775a58e" target="_top" xlink:title="div_power">
<polygon fill="#ffffff" stroke="#000000" points="202,-323.5 202,-342.5 263,-342.5 263,-323.5 202,-323.5"/>
<text text-anchor="middle" x="232.5" y="-330.5" font-family="Helvetica,sans-Serif" font-size="10.00" fill="#000000">div_power</text>
</a>
</g>
</g>
<!-- Node59&#45;&gt;Node60 -->
<g id="edge2" class="edge">
<title>Node59&#45;&gt;Node60</title>
<path fill="none" stroke="#191970" d="M142.6765,-347.9706C156.9655,-345.5891 175.4293,-342.5118 191.8971,-339.7671"/>
<polygon fill="#191970" stroke="#191970" points="192.5491,-343.2068 201.8376,-338.1104 191.3983,-336.3021 192.5491,-343.2068"/>
</g>
<!-- Node61 -->
<g id="node4" class="node">
<title>Node61</title>
<g id="a_node4"><a xlink:href="twz-generator-threaded_8c.html#a4332cc88466edf2f357989d3a3c5486f" target="_top" xlink:title="mult_power">
<polygon fill="#ffffff" stroke="#000000" points="199,-285.5 199,-304.5 266,-304.5 266,-285.5 199,-285.5"/>
<text text-anchor="middle" x="232.5" y="-292.5" font-family="Helvetica,sans-Serif" font-size="10.00" fill="#000000">mult_power</text>
</a>
</g>
</g>
<!-- Node59&#45;&gt;Node61 -->
<g id="edge3" class="edge">
<title>Node59&#45;&gt;Node61</title>
<path fill="none" stroke="#191970" d="M142.2482,-342.3629C149.0133,-339.4823 156.3498,-336.2284 163,-333 171.3766,-328.9335 190.3392,-318.5357 206.344,-309.6429"/>
<polygon fill="#191970" stroke="#191970" points="208.291,-312.5647 215.3232,-304.6401 204.884,-306.4498 208.291,-312.5647"/>
</g>
<!-- Node62 -->
<g id="node5" class="node">
<title>Node62</title>
<g id="a_node5"><a xlink:href="twz-generator-threaded_8c.html#afdec3708b8532f90a47e9d8f55aadac2" target="_top" xlink:title="v">
<polygon fill="#ffffff" stroke="#000000" points="218,-247.5 218,-266.5 247,-266.5 247,-247.5 218,-247.5"/>
<text text-anchor="middle" x="232.5" y="-254.5" font-family="Helvetica,sans-Serif" font-size="10.00" fill="#000000">v</text>
</a>
</g>
</g>
<!-- Node59&#45;&gt;Node62 -->
<g id="edge4" class="edge">
<title>Node59&#45;&gt;Node62</title>
<path fill="none" stroke="#191970" d="M142.6455,-344.7677C149.7146,-341.8745 157.1165,-338.0112 163,-333 185.8103,-313.5714 177.317,-296.6791 199,-276 201.9636,-273.1736 205.4268,-270.612 208.9809,-268.3503"/>
<polygon fill="#191970" stroke="#191970" points="210.7977,-271.3437 217.7698,-263.3661 207.3446,-265.2546 210.7977,-271.3437"/>
</g>
<!-- Node63&#45;&gt;Node60 -->
<g id="edge6" class="edge">
<title>Node63&#45;&gt;Node60</title>
<path fill="none" stroke="#191970" d="M139.1445,-317.4408C153.7337,-319.8723 173.7763,-323.2127 191.5515,-326.1753"/>
<polygon fill="#191970" stroke="#191970" points="191.2575,-329.6745 201.6969,-327.8662 192.4084,-322.7697 191.2575,-329.6745"/>
</g>
<!-- Node63&#45;&gt;Node61 -->
<g id="edge7" class="edge">
<title>Node63&#45;&gt;Node61</title>
<path fill="none" stroke="#191970" d="M139.1445,-310.5592C152.8535,-308.2744 171.3776,-305.1871 188.311,-302.3648"/>
<polygon fill="#191970" stroke="#191970" points="189.3031,-305.7478 198.5916,-300.6514 188.1523,-298.8431 189.3031,-305.7478"/>
</g>
<!-- Node63&#45;&gt;Node62 -->
<g id="edge8" class="edge">
<title>Node63&#45;&gt;Node62</title>
<path fill="none" stroke="#191970" d="M139.0678,-305.7077C146.6616,-302.5184 155.2918,-298.742 163,-295 171.7902,-290.7327 192.2379,-279.4933 208.6918,-270.3374"/>
<polygon fill="#191970" stroke="#191970" points="210.7724,-273.1846 217.7998,-265.2558 207.3617,-267.0716 210.7724,-273.1846"/>
</g>
<!-- Node64&#45;&gt;Node60 -->
<g id="edge10" class="edge">
<title>Node64&#45;&gt;Node60</title>
<path fill="none" stroke="#191970" d="M142.2482,-285.6371C149.0133,-288.5177 156.3498,-291.7716 163,-295 171.3766,-299.0665 190.3392,-309.4643 206.344,-318.3571"/>
<polygon fill="#191970" stroke="#191970" points="204.884,-321.5502 215.3232,-323.3599 208.291,-315.4353 204.884,-321.5502"/>
</g>
<!-- Node64&#45;&gt;Node61 -->
<g id="edge11" class="edge">
<title>Node64&#45;&gt;Node61</title>
<path fill="none" stroke="#191970" d="M145.5164,-280.5027C158.3382,-282.6397 173.9897,-285.2483 188.4635,-287.6606"/>
<polygon fill="#191970" stroke="#191970" points="188.2979,-291.1812 198.7373,-289.3729 189.4488,-284.2764 188.2979,-291.1812"/>
</g>
<!-- Node64&#45;&gt;Node62 -->
<g id="edge12" class="edge">
<title>Node64&#45;&gt;Node62</title>
<path fill="none" stroke="#191970" d="M145.5164,-271.4973C164.4502,-268.3416 189.5545,-264.1576 207.9253,-261.0958"/>
<polygon fill="#191970" stroke="#191970" points="208.5777,-264.5354 217.8662,-259.439 207.4268,-257.6307 208.5777,-264.5354"/>
</g>
<!-- Node65&#45;&gt;Node60 -->
<g id="edge14" class="edge">
<title>Node65&#45;&gt;Node60</title>
<path fill="none" stroke="#191970" d="M140.3545,-244.323C148.0875,-247.2992 156.477,-251.4441 163,-257 185.8103,-276.4286 177.317,-293.3209 199,-314 200.4153,-315.3498 201.9445,-316.6391 203.5431,-317.8643"/>
<polygon fill="#191970" stroke="#191970" points="201.6457,-320.8058 211.9086,-323.4372 205.5267,-314.9801 201.6457,-320.8058"/>
</g>
<!-- Node65&#45;&gt;Node61 -->
<g id="edge15" class="edge">
<title>Node65&#45;&gt;Node61</title>
<path fill="none" stroke="#191970" d="M140.4183,-246.8611C147.6738,-249.9258 155.7453,-253.4781 163,-257 171.3766,-261.0665 190.3392,-271.4643 206.344,-280.3571"/>
<polygon fill="#191970" stroke="#191970" points="204.884,-283.5502 215.3232,-285.3599 208.291,-277.4353 204.884,-283.5502"/>
</g>
<!-- Node65&#45;&gt;Node62 -->
<g id="edge16" class="edge">
<title>Node65&#45;&gt;Node62</title>
<path fill="none" stroke="#191970" d="M140.2109,-241.6185C159.4864,-244.8311 187.6384,-249.5231 207.7749,-252.8791"/>
<polygon fill="#191970" stroke="#191970" points="207.3177,-256.3512 217.7571,-254.5428 208.4686,-249.4464 207.3177,-256.3512"/>
</g>
<!-- Node68&#45;&gt;Node69 -->
<g id="edge20" class="edge">
<title>Node68&#45;&gt;Node69</title>
<path fill="none" stroke="#191970" d="M145.5164,-86C159.8834,-86 177.8033,-86 193.6382,-86"/>
<polygon fill="#191970" stroke="#191970" points="193.6847,-89.5001 203.6847,-86 193.6846,-82.5001 193.6847,-89.5001"/>
</g>
<!-- Node70&#45;&gt;Node69 -->
<g id="edge22" class="edge">
<title>Node70&#45;&gt;Node69</title>
<path fill="none" stroke="#191970" d="M147.267,-57.589C161.4433,-62.3144 178.7366,-68.0789 194.0322,-73.1774"/>
<polygon fill="#191970" stroke="#191970" points="193.1485,-76.5721 203.7422,-76.4141 195.3622,-69.9313 193.1485,-76.5721"/>
</g>
</g>
</svg>
