<?xml version="1.0" encoding="UTF-8" standalone="no"?>
<!DOCTYPE svg PUBLIC "-//W3C//DTD SVG 1.1//EN"
 "http://www.w3.org/Graphics/SVG/1.1/DTD/svg11.dtd">
<!-- Generated by graphviz version 2.40.1 (20161225.0304)
 -->
<!-- Title: fTHREE Pages: 1 -->
<svg width="165pt" height="104pt"
 viewBox="0.00 0.00 165.00 104.00" xmlns="http://www.w3.org/2000/svg" xmlns:xlink="http://www.w3.org/1999/xlink">
<g id="graph0" class="graph" transform="scale(1 1) rotate(0) translate(4 100)">
<title>fTHREE</title>
<polygon fill="#ffffff" stroke="transparent" points="-4,4 -4,-100 161,-100 161,4 -4,4"/>
<!-- Node27 -->
<g id="node1" class="node">
<title>Node27</title>
<polygon fill="#bfbfbf" stroke="#000000" points="0,-38.5 0,-57.5 54,-57.5 54,-38.5 0,-38.5"/>
<text text-anchor="middle" x="27" y="-45.5" font-family="Helvetica,sans-Serif" font-size="10.00" fill="#000000">fTHREE</text>
</g>
<!-- Node28 -->
<g id="node2" class="node">
<title>Node28</title>
<g id="a_node2"><a xlink:href="twz-generator-threaded_8c.html#a9a2cbd4f64ce0054305751682775a58e" target="_top" xlink:title="div_power">
<polygon fill="#ffffff" stroke="#000000" points="93,-76.5 93,-95.5 154,-95.5 154,-76.5 93,-76.5"/>
<text text-anchor="middle" x="123.5" y="-83.5" font-family="Helvetica,sans-Serif" font-size="10.00" fill="#000000">div_power</text>
</a>
</g>
</g>
<!-- Node27&#45;&gt;Node28 -->
<g id="edge1" class="edge">
<title>Node27&#45;&gt;Node28</title>
<path fill="none" stroke="#191970" d="M51.351,-57.589C63.0082,-62.1794 77.1554,-67.7503 89.8235,-72.7388"/>
<polygon fill="#191970" stroke="#191970" points="88.5698,-76.0066 99.1568,-76.4141 91.1346,-69.4934 88.5698,-76.0066"/>
</g>
<!-- Node29 -->
<g id="node3" class="node">
<title>Node29</title>
<g id="a_node3"><a xlink:href="twz-generator-threaded_8c.html#a4332cc88466edf2f357989d3a3c5486f" target="_top" xlink:title="mult_power">
<polygon fill="#ffffff" stroke="#000000" points="90,-38.5 90,-57.5 157,-57.5 157,-38.5 90,-38.5"/>
<text text-anchor="middle" x="123.5" y="-45.5" font-family="Helvetica,sans-Serif" font-size="10.00" fill="#000000">mult_power</text>
</a>
</g>
</g>
<!-- Node27&#45;&gt;Node29 -->
<g id="edge2" class="edge">
<title>Node27&#45;&gt;Node29</title>
<path fill="none" stroke="#191970" d="M54.1374,-48C62.0709,-48 70.9529,-48 79.6433,-48"/>
<polygon fill="#191970" stroke="#191970" points="79.6887,-51.5001 89.6886,-48 79.6886,-44.5001 79.6887,-51.5001"/>
</g>
<!-- Node30 -->
<g id="node4" class="node">
<title>Node30</title>
<g id="a_node4"><a xlink:href="twz-generator-threaded_8c.html#afdec3708b8532f90a47e9d8f55aadac2" target="_top" xlink:title="v">
<polygon fill="#ffffff" stroke="#000000" points="109,-.5 109,-19.5 138,-19.5 138,-.5 109,-.5"/>
<text text-anchor="middle" x="123.5" y="-7.5" font-family="Helvetica,sans-Serif" font-size="10.00" fill="#000000">v</text>
</a>
</g>
</g>
<!-- Node27&#45;&gt;Node30 -->
<g id="edge3" class="edge">
<title>Node27&#45;&gt;Node30</title>
<path fill="none" stroke="#191970" d="M51.351,-38.411C66.0495,-32.623 84.7066,-25.2762 99.3659,-19.5036"/>
<polygon fill="#191970" stroke="#191970" points="100.7559,-22.7179 108.7781,-15.7972 98.1911,-16.2047 100.7559,-22.7179"/>
</g>
</g>
</svg>
