<?xml version="1.0" encoding="UTF-8" standalone="no"?>
<!DOCTYPE svg PUBLIC "-//W3C//DTD SVG 1.1//EN"
 "http://www.w3.org/Graphics/SVG/1.1/DTD/svg11.dtd">
<!-- Generated by graphviz version 2.40.1 (20161225.0304)
 -->
<!-- Title: inputerror Pages: 1 -->
<svg width="264pt" height="104pt"
 viewBox="0.00 0.00 264.00 104.00" xmlns="http://www.w3.org/2000/svg" xmlns:xlink="http://www.w3.org/1999/xlink">
<g id="graph0" class="graph" transform="scale(1 1) rotate(0) translate(4 100)">
<title>inputerror</title>
<polygon fill="#ffffff" stroke="transparent" points="-4,4 -4,-100 260,-100 260,4 -4,4"/>
<!-- Node35 -->
<g id="node1" class="node">
<title>Node35</title>
<polygon fill="#bfbfbf" stroke="#000000" points="0,-38.5 0,-57.5 57,-57.5 57,-38.5 0,-38.5"/>
<text text-anchor="middle" x="28.5" y="-45.5" font-family="Helvetica,sans-Serif" font-size="10.00" fill="#000000">inputerror</text>
</g>
<!-- Node36 -->
<g id="node2" class="node">
<title>Node36</title>
<g id="a_node2"><a xlink:href="twz-generator_8c.html#ace8074151866102cdfbb566af0906119" target="_top" xlink:title="get_step">
<polygon fill="#ffffff" stroke="#000000" points="110.5,-76.5 110.5,-95.5 164.5,-95.5 164.5,-76.5 110.5,-76.5"/>
<text text-anchor="middle" x="137.5" y="-83.5" font-family="Helvetica,sans-Serif" font-size="10.00" fill="#000000">get_step</text>
</a>
</g>
</g>
<!-- Node35&#45;&gt;Node36 -->
<g id="edge1" class="edge">
<title>Node35&#45;&gt;Node36</title>
<path fill="none" stroke="#191970" d="M65.7853,-60.9985C80.4244,-66.1021 96.9103,-71.8495 110.3811,-76.5457"/>
<polygon fill="#191970" stroke="#191970" points="66.6001,-57.5761 56.0053,-57.589 64.2957,-64.1859 66.6001,-57.5761"/>
</g>
<!-- Node37 -->
<g id="node3" class="node">
<title>Node37</title>
<g id="a_node3"><a xlink:href="twz-generator_8c.html#a0ddf1224851353fc92bfbff6f499fa97" target="_top" xlink:title="main">
<polygon fill="#ffffff" stroke="#000000" points="218,-38.5 218,-57.5 256,-57.5 256,-38.5 218,-38.5"/>
<text text-anchor="middle" x="237" y="-45.5" font-family="Helvetica,sans-Serif" font-size="10.00" fill="#000000">main</text>
</a>
</g>
</g>
<!-- Node35&#45;&gt;Node37 -->
<g id="edge5" class="edge">
<title>Node35&#45;&gt;Node37</title>
<path fill="none" stroke="#191970" d="M67.2515,-48C111.9559,-48 183.6707,-48 217.7782,-48"/>
<polygon fill="#191970" stroke="#191970" points="67.0539,-44.5001 57.0539,-48 67.0538,-51.5001 67.0539,-44.5001"/>
</g>
<!-- Node38 -->
<g id="node4" class="node">
<title>Node38</title>
<g id="a_node4"><a xlink:href="twz-generator_8c.html#a93b0bce052bd1491c322eb859b5f7066" target="_top" xlink:title="get_wave_factor">
<polygon fill="#ffffff" stroke="#000000" points="93,-.5 93,-19.5 182,-19.5 182,-.5 93,-.5"/>
<text text-anchor="middle" x="137.5" y="-7.5" font-family="Helvetica,sans-Serif" font-size="10.00" fill="#000000">get_wave_factor</text>
</a>
</g>
</g>
<!-- Node35&#45;&gt;Node38 -->
<g id="edge3" class="edge">
<title>Node35&#45;&gt;Node38</title>
<path fill="none" stroke="#191970" d="M65.7085,-35.0282C80.2303,-29.9656 96.5794,-24.2659 110.0035,-19.5859"/>
<polygon fill="#191970" stroke="#191970" points="64.2957,-31.8141 56.0053,-38.411 66.6001,-38.4239 64.2957,-31.8141"/>
</g>
<!-- Node36&#45;&gt;Node37 -->
<g id="edge2" class="edge">
<title>Node36&#45;&gt;Node37</title>
<path fill="none" stroke="#191970" d="M172.2938,-72.7119C187.5938,-66.8687 204.9745,-60.2308 217.8669,-55.3071"/>
<polygon fill="#191970" stroke="#191970" points="170.7012,-69.5735 162.6081,-76.411 173.1987,-76.1128 170.7012,-69.5735"/>
</g>
<!-- Node38&#45;&gt;Node37 -->
<g id="edge4" class="edge">
<title>Node38&#45;&gt;Node37</title>
<path fill="none" stroke="#191970" d="M172.2938,-23.2881C187.5938,-29.1313 204.9745,-35.7692 217.8669,-40.6929"/>
<polygon fill="#191970" stroke="#191970" points="173.1987,-19.8872 162.6081,-19.589 170.7012,-26.4265 173.1987,-19.8872"/>
</g>
</g>
</svg>
