<?xml version="1.0" encoding="UTF-8" standalone="no"?>
<!DOCTYPE svg PUBLIC "-//W3C//DTD SVG 1.1//EN"
 "http://www.w3.org/Graphics/SVG/1.1/DTD/svg11.dtd">
<!-- Generated by graphviz version 2.40.1 (20161225.0304)
 -->
<!-- Title: main Pages: 1 -->
<svg width="274pt" height="294pt"
 viewBox="0.00 0.00 274.00 294.00" xmlns="http://www.w3.org/2000/svg" xmlns:xlink="http://www.w3.org/1999/xlink">
<g id="graph0" class="graph" transform="scale(1 1) rotate(0) translate(4 290)">
<title>main</title>
<polygon fill="#ffffff" stroke="transparent" points="-4,4 -4,-290 270,-290 270,4 -4,4"/>
<!-- Node39 -->
<g id="node1" class="node">
<title>Node39</title>
<polygon fill="#bfbfbf" stroke="#000000" points="0,-114.5 0,-133.5 38,-133.5 38,-114.5 0,-114.5"/>
<text text-anchor="middle" x="19" y="-121.5" font-family="Helvetica,sans-Serif" font-size="10.00" fill="#000000">main</text>
</g>
<!-- Node40 -->
<g id="node2" class="node">
<title>Node40</title>
<g id="a_node2"><a xlink:href="twz-generator_8c.html#a96b227aeaa6038dbf6b76d6bda848356" target="_top" xlink:title="f">
<polygon fill="#ffffff" stroke="#000000" points="104,-228.5 104,-247.5 133,-247.5 133,-228.5 104,-228.5"/>
<text text-anchor="middle" x="118.5" y="-235.5" font-family="Helvetica,sans-Serif" font-size="10.00" fill="#000000">f</text>
</a>
</g>
</g>
<!-- Node39&#45;&gt;Node40 -->
<g id="edge1" class="edge">
<title>Node39&#45;&gt;Node40</title>
<path fill="none" stroke="#191970" d="M22.2449,-133.7045C29.0075,-152.5709 46.3208,-194.489 74,-219 79.7466,-224.0888 87.0602,-227.9655 94.0902,-230.8471"/>
<polygon fill="#191970" stroke="#191970" points="93.3766,-234.309 103.9712,-234.3821 95.7346,-227.7181 93.3766,-234.309"/>
</g>
<!-- Node44 -->
<g id="node6" class="node">
<title>Node44</title>
<g id="a_node6"><a xlink:href="twz-generator_8c.html#a8614827cf795aabd67b3151a1b87988e" target="_top" xlink:title="get_dtzp">
<polygon fill="#ffffff" stroke="#000000" points="91.5,-190.5 91.5,-209.5 145.5,-209.5 145.5,-190.5 91.5,-190.5"/>
<text text-anchor="middle" x="118.5" y="-197.5" font-family="Helvetica,sans-Serif" font-size="10.00" fill="#000000">get_dtzp</text>
</a>
</g>
</g>
<!-- Node39&#45;&gt;Node44 -->
<g id="edge5" class="edge">
<title>Node39&#45;&gt;Node44</title>
<path fill="none" stroke="#191970" d="M26.2496,-133.619C35.9696,-145.9693 54.2977,-167.4225 74,-181 76.5463,-182.7548 79.2805,-184.3977 82.0959,-185.9248"/>
<polygon fill="#191970" stroke="#191970" points="80.7142,-189.1453 91.2342,-190.4025 83.7943,-182.8593 80.7142,-189.1453"/>
</g>
<!-- Node45 -->
<g id="node7" class="node">
<title>Node45</title>
<g id="a_node7"><a xlink:href="twz-generator_8c.html#a8e5318d51506def474f1f32712cd7f52" target="_top" xlink:title="get_NegBailout">
<polygon fill="#ffffff" stroke="#000000" points="77,-152.5 77,-171.5 160,-171.5 160,-152.5 77,-152.5"/>
<text text-anchor="middle" x="118.5" y="-159.5" font-family="Helvetica,sans-Serif" font-size="10.00" fill="#000000">get_NegBailout</text>
</a>
</g>
</g>
<!-- Node39&#45;&gt;Node45 -->
<g id="edge6" class="edge">
<title>Node39&#45;&gt;Node45</title>
<path fill="none" stroke="#191970" d="M38.1846,-131.3268C51.0628,-136.2451 68.4024,-142.8672 83.6742,-148.6997"/>
<polygon fill="#191970" stroke="#191970" points="82.7531,-152.0944 93.3437,-152.3926 85.2506,-145.5551 82.7531,-152.0944"/>
</g>
<!-- Node46 -->
<g id="node8" class="node">
<title>Node46</title>
<g id="a_node8"><a xlink:href="twz-generator_8c.html#ace8074151866102cdfbb566af0906119" target="_top" xlink:title="get_step">
<polygon fill="#ffffff" stroke="#000000" points="91.5,-114.5 91.5,-133.5 145.5,-133.5 145.5,-114.5 91.5,-114.5"/>
<text text-anchor="middle" x="118.5" y="-121.5" font-family="Helvetica,sans-Serif" font-size="10.00" fill="#000000">get_step</text>
</a>
</g>
</g>
<!-- Node39&#45;&gt;Node46 -->
<g id="edge7" class="edge">
<title>Node39&#45;&gt;Node46</title>
<path fill="none" stroke="#191970" d="M38.1846,-124C50.3631,-124 66.5313,-124 81.1676,-124"/>
<polygon fill="#191970" stroke="#191970" points="81.4755,-127.5001 91.4754,-124 81.4754,-120.5001 81.4755,-127.5001"/>
</g>
<!-- Node47 -->
<g id="node9" class="node">
<title>Node47</title>
<g id="a_node9"><a xlink:href="twz-generator_8c.html#a834e47e7ea5712bac2e2d0a497817f5a" target="_top" xlink:title="inputerror">
<polygon fill="#ffffff" stroke="#000000" points="204,-76.5 204,-95.5 261,-95.5 261,-76.5 204,-76.5"/>
<text text-anchor="middle" x="232.5" y="-83.5" font-family="Helvetica,sans-Serif" font-size="10.00" fill="#000000">inputerror</text>
</a>
</g>
</g>
<!-- Node39&#45;&gt;Node47 -->
<g id="edge11" class="edge">
<title>Node39&#45;&gt;Node47</title>
<path fill="none" stroke="#191970" d="M38.0511,-116.2934C48.506,-112.352 61.7916,-107.8066 74,-105 114.1613,-95.7674 161.1405,-90.85 193.4688,-88.3498"/>
<polygon fill="#191970" stroke="#191970" points="194.1214,-91.8116 203.8397,-87.5919 193.6111,-84.8302 194.1214,-91.8116"/>
</g>
<!-- Node48 -->
<g id="node10" class="node">
<title>Node48</title>
<g id="a_node10"><a xlink:href="twz-generator_8c.html#a93b0bce052bd1491c322eb859b5f7066" target="_top" xlink:title="get_wave_factor">
<polygon fill="#ffffff" stroke="#000000" points="74,-38.5 74,-57.5 163,-57.5 163,-38.5 74,-38.5"/>
<text text-anchor="middle" x="118.5" y="-45.5" font-family="Helvetica,sans-Serif" font-size="10.00" fill="#000000">get_wave_factor</text>
</a>
</g>
</g>
<!-- Node39&#45;&gt;Node48 -->
<g id="edge9" class="edge">
<title>Node39&#45;&gt;Node48</title>
<path fill="none" stroke="#191970" d="M27.687,-114.3759C38.0139,-103.287 56.1097,-84.9345 74,-72 78.6236,-68.6572 83.7682,-65.4646 88.871,-62.5615"/>
<polygon fill="#191970" stroke="#191970" points="90.7621,-65.5178 97.8896,-57.6787 87.4293,-59.3621 90.7621,-65.5178"/>
</g>
<!-- Node49 -->
<g id="node11" class="node">
<title>Node49</title>
<g id="a_node11"><a xlink:href="twz-generator_8c.html#aefe480fc1bf2e63e95bc86669ae127c1" target="_top" xlink:title="set_powers">
<polygon fill="#ffffff" stroke="#000000" points="85,-.5 85,-19.5 152,-19.5 152,-.5 85,-.5"/>
<text text-anchor="middle" x="118.5" y="-7.5" font-family="Helvetica,sans-Serif" font-size="10.00" fill="#000000">set_powers</text>
</a>
</g>
</g>
<!-- Node39&#45;&gt;Node49 -->
<g id="edge12" class="edge">
<title>Node39&#45;&gt;Node49</title>
<path fill="none" stroke="#191970" d="M22.2449,-114.2955C29.0075,-95.4291 46.3208,-53.511 74,-29 75.7373,-27.4615 77.6179,-26.0338 79.5906,-24.7109"/>
<polygon fill="#191970" stroke="#191970" points="81.6973,-27.54 88.6704,-19.5633 78.245,-21.4505 81.6973,-27.54"/>
</g>
<!-- Node41 -->
<g id="node3" class="node">
<title>Node41</title>
<g id="a_node3"><a xlink:href="twz-generator_8c.html#a9a2cbd4f64ce0054305751682775a58e" target="_top" xlink:title="div_power">
<polygon fill="#ffffff" stroke="#000000" points="202,-266.5 202,-285.5 263,-285.5 263,-266.5 202,-266.5"/>
<text text-anchor="middle" x="232.5" y="-273.5" font-family="Helvetica,sans-Serif" font-size="10.00" fill="#000000">div_power</text>
</a>
</g>
</g>
<!-- Node40&#45;&gt;Node41 -->
<g id="edge2" class="edge">
<title>Node40&#45;&gt;Node41</title>
<path fill="none" stroke="#191970" d="M133.4035,-242.9678C148.7215,-248.0738 173.2039,-256.2346 194.0008,-263.1669"/>
<polygon fill="#191970" stroke="#191970" points="192.9597,-266.5092 203.5533,-266.3511 195.1733,-259.8684 192.9597,-266.5092"/>
</g>
<!-- Node42 -->
<g id="node4" class="node">
<title>Node42</title>
<g id="a_node4"><a xlink:href="twz-generator_8c.html#a4332cc88466edf2f357989d3a3c5486f" target="_top" xlink:title="mult_power">
<polygon fill="#ffffff" stroke="#000000" points="199,-228.5 199,-247.5 266,-247.5 266,-228.5 199,-228.5"/>
<text text-anchor="middle" x="232.5" y="-235.5" font-family="Helvetica,sans-Serif" font-size="10.00" fill="#000000">mult_power</text>
</a>
</g>
</g>
<!-- Node40&#45;&gt;Node42 -->
<g id="edge3" class="edge">
<title>Node40&#45;&gt;Node42</title>
<path fill="none" stroke="#191970" d="M133.4035,-238C147.4211,-238 169.1131,-238 188.6323,-238"/>
<polygon fill="#191970" stroke="#191970" points="188.8888,-241.5001 198.8888,-238 188.8888,-234.5001 188.8888,-241.5001"/>
</g>
<!-- Node43 -->
<g id="node5" class="node">
<title>Node43</title>
<g id="a_node5"><a xlink:href="twz-generator_8c.html#afdec3708b8532f90a47e9d8f55aadac2" target="_top" xlink:title="v">
<polygon fill="#ffffff" stroke="#000000" points="218,-190.5 218,-209.5 247,-209.5 247,-190.5 218,-190.5"/>
<text text-anchor="middle" x="232.5" y="-197.5" font-family="Helvetica,sans-Serif" font-size="10.00" fill="#000000">v</text>
</a>
</g>
</g>
<!-- Node40&#45;&gt;Node43 -->
<g id="edge4" class="edge">
<title>Node40&#45;&gt;Node43</title>
<path fill="none" stroke="#191970" d="M133.4035,-233.0322C152.4545,-226.6818 185.6808,-215.6064 208.3627,-208.0458"/>
<polygon fill="#191970" stroke="#191970" points="209.5733,-211.3316 217.9533,-204.8489 207.3596,-204.6909 209.5733,-211.3316"/>
</g>
<!-- Node46&#45;&gt;Node47 -->
<g id="edge8" class="edge">
<title>Node46&#45;&gt;Node47</title>
<path fill="none" stroke="#191970" d="M145.5164,-114.9945C160.0203,-110.1599 178.1449,-104.1184 194.0901,-98.8033"/>
<polygon fill="#191970" stroke="#191970" points="195.3046,-102.0879 203.6847,-95.6051 193.091,-95.4471 195.3046,-102.0879"/>
</g>
<!-- Node48&#45;&gt;Node47 -->
<g id="edge10" class="edge">
<title>Node48&#45;&gt;Node47</title>
<path fill="none" stroke="#191970" d="M147.267,-57.589C161.4433,-62.3144 178.7366,-68.0789 194.0322,-73.1774"/>
<polygon fill="#191970" stroke="#191970" points="193.1485,-76.5721 203.7422,-76.4141 195.3622,-69.9313 193.1485,-76.5721"/>
</g>
</g>
</svg>
