<?xml version="1.0" encoding="UTF-8" standalone="no"?>
<!DOCTYPE svg PUBLIC "-//W3C//DTD SVG 1.1//EN"
 "http://www.w3.org/Graphics/SVG/1.1/DTD/svg11.dtd">
<!-- Generated by graphviz version 2.40.1 (20161225.0304)
 -->
<!-- Title: twz&#45;generator&#45;threaded.c Pages: 1 -->
<svg width="935pt" height="84pt"
 viewBox="0.00 0.00 934.50 84.00" xmlns="http://www.w3.org/2000/svg" xmlns:xlink="http://www.w3.org/1999/xlink">
<g id="graph0" class="graph" transform="scale(1 1) rotate(0) translate(4 80)">
<title>twz&#45;generator&#45;threaded.c</title>
<polygon fill="#ffffff" stroke="transparent" points="-4,4 -4,-80 930.5,-80 930.5,4 -4,4"/>
<!-- Node0 -->
<g id="node1" class="node">
<title>Node0</title>
<polygon fill="#bfbfbf" stroke="#000000" points="296,-56.5 296,-75.5 421,-75.5 421,-56.5 296,-56.5"/>
<text text-anchor="middle" x="358.5" y="-63.5" font-family="Helvetica,sans-Serif" font-size="10.00" fill="#000000">twz&#45;generator&#45;threaded.c</text>
</g>
<!-- Node1 -->
<g id="node2" class="node">
<title>Node1</title>
<polygon fill="#ffffff" stroke="#bfbfbf" points="0,-.5 0,-19.5 47,-19.5 47,-.5 0,-.5"/>
<text text-anchor="middle" x="23.5" y="-7.5" font-family="Helvetica,sans-Serif" font-size="10.00" fill="#000000">math.h</text>
</g>
<!-- Node0&#45;&gt;Node1 -->
<g id="edge1" class="edge">
<title>Node0&#45;&gt;Node1</title>
<path fill="none" stroke="#191970" d="M295.8352,-59.1093C236.6326,-52 145.2522,-39.4824 57.0847,-19.8572"/>
<polygon fill="#191970" stroke="#191970" points="57.7102,-16.4104 47.1846,-17.6201 56.1672,-23.2382 57.7102,-16.4104"/>
</g>
<!-- Node2 -->
<g id="node3" class="node">
<title>Node2</title>
<polygon fill="#ffffff" stroke="#bfbfbf" points="65.5,-.5 65.5,-19.5 111.5,-19.5 111.5,-.5 65.5,-.5"/>
<text text-anchor="middle" x="88.5" y="-7.5" font-family="Helvetica,sans-Serif" font-size="10.00" fill="#000000">stdio.h</text>
</g>
<!-- Node0&#45;&gt;Node2 -->
<g id="edge2" class="edge">
<title>Node0&#45;&gt;Node2</title>
<path fill="none" stroke="#191970" d="M299.411,-56.4746C253.2743,-48.6055 187.4207,-36.4305 121.5493,-20.0675"/>
<polygon fill="#191970" stroke="#191970" points="122.3846,-16.6686 111.8328,-17.6229 120.6766,-23.4571 122.3846,-16.6686"/>
</g>
<!-- Node3 -->
<g id="node4" class="node">
<title>Node3</title>
<polygon fill="#ffffff" stroke="#bfbfbf" points="129.5,-.5 129.5,-19.5 177.5,-19.5 177.5,-.5 129.5,-.5"/>
<text text-anchor="middle" x="153.5" y="-7.5" font-family="Helvetica,sans-Serif" font-size="10.00" fill="#000000">stdlib.h</text>
</g>
<!-- Node0&#45;&gt;Node3 -->
<g id="edge3" class="edge">
<title>Node0&#45;&gt;Node3</title>
<path fill="none" stroke="#191970" d="M321.4961,-56.4796C288.6431,-47.9434 239.1034,-34.8683 187.316,-20.1723"/>
<polygon fill="#191970" stroke="#191970" points="188.1999,-16.7849 177.6236,-17.4101 186.2814,-23.5169 188.1999,-16.7849"/>
</g>
<!-- Node4 -->
<g id="node5" class="node">
<title>Node4</title>
<polygon fill="#ffffff" stroke="#bfbfbf" points="196,-.5 196,-19.5 245,-19.5 245,-.5 196,-.5"/>
<text text-anchor="middle" x="220.5" y="-7.5" font-family="Helvetica,sans-Serif" font-size="10.00" fill="#000000">stdint.h</text>
</g>
<!-- Node0&#45;&gt;Node4 -->
<g id="edge4" class="edge">
<title>Node0&#45;&gt;Node4</title>
<path fill="none" stroke="#191970" d="M334.777,-56.3733C312.3263,-47.2629 278.4261,-33.5062 253.3745,-23.3404"/>
<polygon fill="#191970" stroke="#191970" points="254.4957,-20.0182 243.9135,-19.5011 251.8635,-26.5045 254.4957,-20.0182"/>
</g>
<!-- Node5 -->
<g id="node6" class="node">
<title>Node5</title>
<polygon fill="#ffffff" stroke="#bfbfbf" points="263,-.5 263,-19.5 312,-19.5 312,-.5 263,-.5"/>
<text text-anchor="middle" x="287.5" y="-7.5" font-family="Helvetica,sans-Serif" font-size="10.00" fill="#000000">string.h</text>
</g>
<!-- Node0&#45;&gt;Node5 -->
<g id="edge5" class="edge">
<title>Node0&#45;&gt;Node5</title>
<path fill="none" stroke="#191970" d="M346.1327,-56.2455C335.5446,-47.8943 320.0936,-35.7076 307.7107,-25.9408"/>
<polygon fill="#191970" stroke="#191970" points="309.7447,-23.0875 299.7255,-19.6427 305.4097,-28.5837 309.7447,-23.0875"/>
</g>
<!-- Node6 -->
<g id="node7" class="node">
<title>Node6</title>
<polygon fill="#ffffff" stroke="#bfbfbf" points="330.5,-.5 330.5,-19.5 386.5,-19.5 386.5,-.5 330.5,-.5"/>
<text text-anchor="middle" x="358.5" y="-7.5" font-family="Helvetica,sans-Serif" font-size="10.00" fill="#000000">stdbool.h</text>
</g>
<!-- Node0&#45;&gt;Node6 -->
<g id="edge6" class="edge">
<title>Node0&#45;&gt;Node6</title>
<path fill="none" stroke="#191970" d="M358.5,-56.2455C358.5,-48.9382 358.5,-38.6944 358.5,-29.7046"/>
<polygon fill="#191970" stroke="#191970" points="362.0001,-29.6426 358.5,-19.6427 355.0001,-29.6427 362.0001,-29.6426"/>
</g>
<!-- Node7 -->
<g id="node8" class="node">
<title>Node7</title>
<polygon fill="#ffffff" stroke="#bfbfbf" points="405,-.5 405,-19.5 462,-19.5 462,-.5 405,-.5"/>
<text text-anchor="middle" x="433.5" y="-7.5" font-family="Helvetica,sans-Serif" font-size="10.00" fill="#000000">pthread.h</text>
</g>
<!-- Node0&#45;&gt;Node7 -->
<g id="edge7" class="edge">
<title>Node0&#45;&gt;Node7</title>
<path fill="none" stroke="#191970" d="M371.564,-56.2455C382.8562,-47.814 399.3845,-35.4729 412.5271,-25.6598"/>
<polygon fill="#191970" stroke="#191970" points="414.6669,-28.4301 420.5857,-19.6427 410.4789,-22.8211 414.6669,-28.4301"/>
</g>
<!-- Node8 -->
<g id="node9" class="node">
<title>Node8</title>
<polygon fill="#ffffff" stroke="#bfbfbf" points="480.5,-.5 480.5,-19.5 578.5,-19.5 578.5,-.5 480.5,-.5"/>
<text text-anchor="middle" x="529.5" y="-7.5" font-family="Helvetica,sans-Serif" font-size="10.00" fill="#000000">DATA/DATA.TW1</text>
</g>
<!-- Node0&#45;&gt;Node8 -->
<g id="edge8" class="edge">
<title>Node0&#45;&gt;Node8</title>
<path fill="none" stroke="#191970" d="M387.8959,-56.3733C416.3307,-47.0613 459.5877,-32.8953 490.8081,-22.671"/>
<polygon fill="#191970" stroke="#191970" points="492.0736,-25.9396 500.4876,-19.5011 489.895,-19.2872 492.0736,-25.9396"/>
</g>
<!-- Node9 -->
<g id="node10" class="node">
<title>Node9</title>
<polygon fill="#ffffff" stroke="#bfbfbf" points="596.5,-.5 596.5,-19.5 694.5,-19.5 694.5,-.5 596.5,-.5"/>
<text text-anchor="middle" x="645.5" y="-7.5" font-family="Helvetica,sans-Serif" font-size="10.00" fill="#000000">DATA/DATA.TW2</text>
</g>
<!-- Node0&#45;&gt;Node9 -->
<g id="edge9" class="edge">
<title>Node0&#45;&gt;Node9</title>
<path fill="none" stroke="#191970" d="M407.511,-56.4369C457.1447,-46.7522 533.9273,-31.7703 586.7834,-21.4569"/>
<polygon fill="#191970" stroke="#191970" points="587.5466,-24.8741 596.6912,-19.5237 586.206,-18.0036 587.5466,-24.8741"/>
</g>
<!-- Node10 -->
<g id="node11" class="node">
<title>Node10</title>
<polygon fill="#ffffff" stroke="#bfbfbf" points="712.5,-.5 712.5,-19.5 810.5,-19.5 810.5,-.5 712.5,-.5"/>
<text text-anchor="middle" x="761.5" y="-7.5" font-family="Helvetica,sans-Serif" font-size="10.00" fill="#000000">DATA/DATA.TW3</text>
</g>
<!-- Node0&#45;&gt;Node10 -->
<g id="edge10" class="edge">
<title>Node0&#45;&gt;Node10</title>
<path fill="none" stroke="#191970" d="M421.2421,-58.3652C488.2959,-50.0409 597.9706,-35.9534 702.3869,-20.1253"/>
<polygon fill="#191970" stroke="#191970" points="703.1151,-23.5548 712.4737,-18.5882 702.0606,-16.6347 703.1151,-23.5548"/>
</g>
<!-- Node11 -->
<g id="node12" class="node">
<title>Node11</title>
<polygon fill="#ffffff" stroke="#bfbfbf" points="828.5,-.5 828.5,-19.5 926.5,-19.5 926.5,-.5 828.5,-.5"/>
<text text-anchor="middle" x="877.5" y="-7.5" font-family="Helvetica,sans-Serif" font-size="10.00" fill="#000000">DATA/DATA.TW4</text>
</g>
<!-- Node0&#45;&gt;Node11 -->
<g id="edge11" class="edge">
<title>Node0&#45;&gt;Node11</title>
<path fill="none" stroke="#191970" d="M421.301,-61.1614C508.1801,-54.1506 670.1523,-39.9395 818.3012,-20.0805"/>
<polygon fill="#191970" stroke="#191970" points="819.0495,-23.5113 828.4902,-18.7027 818.1114,-16.5744 819.0495,-23.5113"/>
</g>
</g>
</svg>
