<?xml version="1.0" encoding="UTF-8" standalone="no"?>
<!DOCTYPE svg PUBLIC "-//W3C//DTD SVG 1.1//EN"
 "http://www.w3.org/Graphics/SVG/1.1/DTD/svg11.dtd">
<!-- Generated by graphviz version 2.40.1 (20161225.0304)
 -->
<!-- Title: fFOUR Pages: 1 -->
<svg width="159pt" height="104pt"
 viewBox="0.00 0.00 159.00 104.00" xmlns="http://www.w3.org/2000/svg" xmlns:xlink="http://www.w3.org/1999/xlink">
<g id="graph0" class="graph" transform="scale(1 1) rotate(0) translate(4 100)">
<title>fFOUR</title>
<polygon fill="#ffffff" stroke="transparent" points="-4,4 -4,-100 155,-100 155,4 -4,4"/>
<!-- Node15 -->
<g id="node1" class="node">
<title>Node15</title>
<polygon fill="#bfbfbf" stroke="#000000" points="0,-38.5 0,-57.5 48,-57.5 48,-38.5 0,-38.5"/>
<text text-anchor="middle" x="24" y="-45.5" font-family="Helvetica,sans-Serif" font-size="10.00" fill="#000000">fFOUR</text>
</g>
<!-- Node16 -->
<g id="node2" class="node">
<title>Node16</title>
<g id="a_node2"><a xlink:href="twz-generator-threaded_8c.html#a9a2cbd4f64ce0054305751682775a58e" target="_top" xlink:title="div_power">
<polygon fill="#ffffff" stroke="#000000" points="87,-76.5 87,-95.5 148,-95.5 148,-76.5 87,-76.5"/>
<text text-anchor="middle" x="117.5" y="-83.5" font-family="Helvetica,sans-Serif" font-size="10.00" fill="#000000">div_power</text>
</a>
</g>
</g>
<!-- Node15&#45;&gt;Node16 -->
<g id="edge1" class="edge">
<title>Node15&#45;&gt;Node16</title>
<path fill="none" stroke="#191970" d="M47.594,-57.589C58.7781,-62.1344 72.3276,-67.6412 84.509,-72.5919"/>
<polygon fill="#191970" stroke="#191970" points="83.3316,-75.8913 93.9136,-76.4141 85.9672,-69.4065 83.3316,-75.8913"/>
</g>
<!-- Node17 -->
<g id="node3" class="node">
<title>Node17</title>
<g id="a_node3"><a xlink:href="twz-generator-threaded_8c.html#a4332cc88466edf2f357989d3a3c5486f" target="_top" xlink:title="mult_power">
<polygon fill="#ffffff" stroke="#000000" points="84,-38.5 84,-57.5 151,-57.5 151,-38.5 84,-38.5"/>
<text text-anchor="middle" x="117.5" y="-45.5" font-family="Helvetica,sans-Serif" font-size="10.00" fill="#000000">mult_power</text>
</a>
</g>
</g>
<!-- Node15&#45;&gt;Node17 -->
<g id="edge2" class="edge">
<title>Node15&#45;&gt;Node17</title>
<path fill="none" stroke="#191970" d="M48.0786,-48C55.9344,-48 64.9172,-48 73.7561,-48"/>
<polygon fill="#191970" stroke="#191970" points="73.9899,-51.5001 83.9899,-48 73.9899,-44.5001 73.9899,-51.5001"/>
</g>
<!-- Node18 -->
<g id="node4" class="node">
<title>Node18</title>
<g id="a_node4"><a xlink:href="twz-generator-threaded_8c.html#afdec3708b8532f90a47e9d8f55aadac2" target="_top" xlink:title="v">
<polygon fill="#ffffff" stroke="#000000" points="103,-.5 103,-19.5 132,-19.5 132,-.5 103,-.5"/>
<text text-anchor="middle" x="117.5" y="-7.5" font-family="Helvetica,sans-Serif" font-size="10.00" fill="#000000">v</text>
</a>
</g>
</g>
<!-- Node15&#45;&gt;Node18 -->
<g id="edge3" class="edge">
<title>Node15&#45;&gt;Node18</title>
<path fill="none" stroke="#191970" d="M47.594,-38.411C61.6115,-32.714 79.3449,-25.5069 93.4431,-19.7771"/>
<polygon fill="#191970" stroke="#191970" points="95.0149,-22.9164 102.9612,-15.9088 92.3792,-16.4315 95.0149,-22.9164"/>
</g>
</g>
</svg>
