<?xml version="1.0" encoding="UTF-8" standalone="no"?>
<!DOCTYPE svg PUBLIC "-//W3C//DTD SVG 1.1//EN"
 "http://www.w3.org/Graphics/SVG/1.1/DTD/svg11.dtd">
<!-- Generated by graphviz version 2.40.1 (20161225.0304)
 -->
<!-- Title: main Pages: 1 -->
<svg width="252pt" height="104pt"
 viewBox="0.00 0.00 252.00 104.00" xmlns="http://www.w3.org/2000/svg" xmlns:xlink="http://www.w3.org/1999/xlink">
<g id="graph0" class="graph" transform="scale(1 1) rotate(0) translate(4 100)">
<title>main</title>
<polygon fill="#ffffff" stroke="transparent" points="-4,4 -4,-100 248,-100 248,4 -4,4"/>
<!-- Node10 -->
<g id="node1" class="node">
<title>Node10</title>
<polygon fill="#bfbfbf" stroke="#000000" points="0,-19.5 0,-38.5 38,-38.5 38,-19.5 0,-19.5"/>
<text text-anchor="middle" x="19" y="-26.5" font-family="Helvetica,sans-Serif" font-size="10.00" fill="#000000">main</text>
</g>
<!-- Node11 -->
<g id="node2" class="node">
<title>Node11</title>
<g id="a_node2"><a xlink:href="twz-point_8c.html#a96b227aeaa6038dbf6b76d6bda848356" target="_top" xlink:title="f">
<polygon fill="#ffffff" stroke="#000000" points="93,-38.5 93,-57.5 122,-57.5 122,-38.5 93,-38.5"/>
<text text-anchor="middle" x="107.5" y="-45.5" font-family="Helvetica,sans-Serif" font-size="10.00" fill="#000000">f</text>
</a>
</g>
</g>
<!-- Node10&#45;&gt;Node11 -->
<g id="edge1" class="edge">
<title>Node10&#45;&gt;Node11</title>
<path fill="none" stroke="#191970" d="M38.2032,-33.1227C51.3287,-35.9406 68.838,-39.6997 82.9723,-42.7342"/>
<polygon fill="#191970" stroke="#191970" points="82.4825,-46.2087 92.9944,-44.8858 83.9519,-39.3646 82.4825,-46.2087"/>
</g>
<!-- Node15 -->
<g id="node6" class="node">
<title>Node15</title>
<g id="a_node6"><a xlink:href="twz-point_8c.html#aefe480fc1bf2e63e95bc86669ae127c1" target="_top" xlink:title="set_powers">
<polygon fill="#ffffff" stroke="#000000" points="74,-.5 74,-19.5 141,-19.5 141,-.5 74,-.5"/>
<text text-anchor="middle" x="107.5" y="-7.5" font-family="Helvetica,sans-Serif" font-size="10.00" fill="#000000">set_powers</text>
</a>
</g>
</g>
<!-- Node10&#45;&gt;Node15 -->
<g id="edge5" class="edge">
<title>Node10&#45;&gt;Node15</title>
<path fill="none" stroke="#191970" d="M38.2032,-24.8773C45.7382,-23.2596 54.7179,-21.3317 63.6745,-19.4089"/>
<polygon fill="#191970" stroke="#191970" points="64.6562,-22.7779 73.6987,-17.2568 63.1868,-15.9339 64.6562,-22.7779"/>
</g>
<!-- Node12 -->
<g id="node3" class="node">
<title>Node12</title>
<g id="a_node3"><a xlink:href="twz-point_8c.html#a9a2cbd4f64ce0054305751682775a58e" target="_top" xlink:title="div_power">
<polygon fill="#ffffff" stroke="#000000" points="180,-76.5 180,-95.5 241,-95.5 241,-76.5 180,-76.5"/>
<text text-anchor="middle" x="210.5" y="-83.5" font-family="Helvetica,sans-Serif" font-size="10.00" fill="#000000">div_power</text>
</a>
</g>
</g>
<!-- Node11&#45;&gt;Node12 -->
<g id="edge2" class="edge">
<title>Node11&#45;&gt;Node12</title>
<path fill="none" stroke="#191970" d="M122.2574,-53.4445C135.9622,-58.5006 156.9104,-66.2291 174.9576,-72.8873"/>
<polygon fill="#191970" stroke="#191970" points="174.0276,-76.2747 184.6209,-76.4524 176.4505,-69.7074 174.0276,-76.2747"/>
</g>
<!-- Node13 -->
<g id="node4" class="node">
<title>Node13</title>
<g id="a_node4"><a xlink:href="twz-point_8c.html#a4332cc88466edf2f357989d3a3c5486f" target="_top" xlink:title="mult_power">
<polygon fill="#ffffff" stroke="#000000" points="177,-38.5 177,-57.5 244,-57.5 244,-38.5 177,-38.5"/>
<text text-anchor="middle" x="210.5" y="-45.5" font-family="Helvetica,sans-Serif" font-size="10.00" fill="#000000">mult_power</text>
</a>
</g>
</g>
<!-- Node11&#45;&gt;Node13 -->
<g id="edge3" class="edge">
<title>Node11&#45;&gt;Node13</title>
<path fill="none" stroke="#191970" d="M122.2574,-48C133.8475,-48 150.6183,-48 166.4337,-48"/>
<polygon fill="#191970" stroke="#191970" points="166.6246,-51.5001 176.6246,-48 166.6246,-44.5001 166.6246,-51.5001"/>
</g>
<!-- Node14 -->
<g id="node5" class="node">
<title>Node14</title>
<g id="a_node5"><a xlink:href="twz-point_8c.html#afdec3708b8532f90a47e9d8f55aadac2" target="_top" xlink:title="v">
<polygon fill="#ffffff" stroke="#000000" points="196,-.5 196,-19.5 225,-19.5 225,-.5 196,-.5"/>
<text text-anchor="middle" x="210.5" y="-7.5" font-family="Helvetica,sans-Serif" font-size="10.00" fill="#000000">v</text>
</a>
</g>
</g>
<!-- Node11&#45;&gt;Node14 -->
<g id="edge4" class="edge">
<title>Node11&#45;&gt;Node14</title>
<path fill="none" stroke="#191970" d="M122.2574,-42.5555C138.9312,-36.404 166.3269,-26.2969 186.1753,-18.9742"/>
<polygon fill="#191970" stroke="#191970" points="187.5996,-22.1794 195.77,-15.4344 185.1766,-15.6121 187.5996,-22.1794"/>
</g>
</g>
</svg>
